<svg width="293" height="80" viewBox="0 0 293 80" fill="none" xmlns="http://www.w3.org/2000/svg">
<rect x="4" y="4" width="285" height="72" fill="#7F1E65"/>
<rect x="4" y="4" width="285" height="72" stroke="#FFABCF" stroke-width="8"/>
<path d="M31.1429 27.2857H33.7143V29.8571H31.1429V27.2857ZM28.5714 27.2857H31.1429V29.8571H28.5714V27.2857ZM28.5714 29.8571H31.1429V32.4286H28.5714V29.8571ZM31.1429 29.8571H33.7143V32.4286H31.1429V29.8571ZM33.7143 29.8571H36.2857V32.4286H33.7143V29.8571ZM33.7143 27.2857H36.2857V29.8571H33.7143V27.2857ZM36.2857 27.2857H38.8571V29.8571H36.2857V27.2857ZM38.8571 27.2857H41.4286V29.8571H38.8571V27.2857ZM38.8571 29.8571H41.4286V32.4286H38.8571V29.8571ZM36.2857 29.8571H38.8571V32.4286H36.2857V29.8571ZM36.2857 32.4286H38.8571V35H36.2857V32.4286ZM38.8571 32.4286H41.4286V35H38.8571V32.4286ZM41.4286 29.8571H44V32.4286H41.4286V29.8571ZM41.4286 32.4286H44V35H41.4286V32.4286ZM41.4286 35H44V37.5714H41.4286V35ZM41.4286 37.5714H44V40.1429H41.4286V37.5714ZM41.4286 40.1429H44V42.7143H41.4286V40.1429ZM41.4286 42.7143H44V45.2857H41.4286V42.7143ZM41.4286 45.2857H44V47.8571H41.4286V45.2857ZM41.4286 47.8571H44V50.4286H41.4286V47.8571ZM38.8571 47.8571H41.4286V50.4286H38.8571V47.8571ZM38.8571 45.2857H41.4286V47.8571H38.8571V45.2857ZM38.8571 42.7143H41.4286V45.2857H38.8571V42.7143ZM38.8571 40.1429H41.4286V42.7143H38.8571V40.1429ZM38.8571 37.5714H41.4286V40.1429H38.8571V37.5714ZM38.8571 35H41.4286V37.5714H38.8571V35ZM36.2857 45.2857H38.8571V47.8571H36.2857V45.2857ZM36.2857 47.8571H38.8571V50.4286H36.2857V47.8571ZM38.8571 50.4286H41.4286V53H38.8571V50.4286ZM36.2857 50.4286H38.8571V53H36.2857V50.4286ZM33.7143 50.4286H36.2857V53H33.7143V50.4286ZM33.7143 47.8571H36.2857V50.4286H33.7143V47.8571ZM31.1429 50.4286H33.7143V53H31.1429V50.4286ZM28.5714 50.4286H31.1429V53H28.5714V50.4286ZM28.5714 47.8571H31.1429V50.4286H28.5714V47.8571ZM31.1429 47.8571H33.7143V50.4286H31.1429V47.8571ZM28.5714 45.2857H31.1429V47.8571H28.5714V45.2857ZM26 47.8571H28.5714V50.4286H26V47.8571ZM26 45.2857H28.5714V47.8571H26V45.2857ZM26 42.7143H28.5714V45.2857H26V42.7143ZM26 40.1429H28.5714V42.7143H26V40.1429ZM26 37.5714H28.5714V40.1429H26V37.5714ZM26 35H28.5714V37.5714H26V35ZM26 32.4286H28.5714V35H26V32.4286ZM28.5714 32.4286H31.1429V35H28.5714V32.4286ZM26 29.8571H28.5714V32.4286H26V29.8571ZM28.5714 35H31.1429V37.5714H28.5714V35ZM28.5714 37.5714H31.1429V40.1429H28.5714V37.5714ZM28.5714 40.1429H31.1429V42.7143H28.5714V40.1429ZM28.5714 42.7143H31.1429V45.2857H28.5714V42.7143ZM26 50.4286H28.5714V53H26V50.4286ZM26 27.2857H28.5714V29.8571H26V27.2857ZM52.681 27.2857H55.2524V29.8571H52.681V27.2857ZM50.1096 27.2857H52.681V29.8571H50.1096V27.2857ZM50.1096 29.8571H52.681V32.4286H50.1096V29.8571ZM52.681 29.8571H55.2524V32.4286H52.681V29.8571ZM55.2524 29.8571H57.8238V32.4286H55.2524V29.8571ZM55.2524 27.2857H57.8238V29.8571H55.2524V27.2857ZM57.8238 27.2857H60.3953V29.8571H57.8238V27.2857ZM60.3953 27.2857H62.9667V29.8571H60.3953V27.2857ZM60.3953 29.8571H62.9667V32.4286H60.3953V29.8571ZM57.8238 29.8571H60.3953V32.4286H57.8238V29.8571ZM57.8238 32.4286H60.3953V35H57.8238V32.4286ZM60.3953 32.4286H62.9667V35H60.3953V32.4286ZM62.9667 29.8571H65.5381V32.4286H62.9667V29.8571ZM62.9667 32.4286H65.5381V35H62.9667V32.4286ZM62.9667 35H65.5381V37.5714H62.9667V35ZM62.9667 37.5714H65.5381V40.1429H62.9667V37.5714ZM62.9667 40.1429H65.5381V42.7143H62.9667V40.1429ZM62.9667 42.7143H65.5381V45.2857H62.9667V42.7143ZM62.9667 45.2857H65.5381V47.8571H62.9667V45.2857ZM62.9667 47.8571H65.5381V50.4286H62.9667V47.8571ZM60.3953 47.8571H62.9667V50.4286H60.3953V47.8571ZM60.3953 45.2857H62.9667V47.8571H60.3953V45.2857ZM60.3953 42.7143H62.9667V45.2857H60.3953V42.7143ZM60.3953 40.1429H62.9667V42.7143H60.3953V40.1429ZM60.3953 37.5714H62.9667V40.1429H60.3953V37.5714ZM60.3953 35H62.9667V37.5714H60.3953V35ZM57.8238 45.2857H60.3953V47.8571H57.8238V45.2857ZM57.8238 47.8571H60.3953V50.4286H57.8238V47.8571ZM60.3953 50.4286H62.9667V53H60.3953V50.4286ZM57.8238 50.4286H60.3953V53H57.8238V50.4286ZM55.2524 50.4286H57.8238V53H55.2524V50.4286ZM55.2524 47.8571H57.8238V50.4286H55.2524V47.8571ZM52.681 50.4286H55.2524V53H52.681V50.4286ZM50.1096 50.4286H52.681V53H50.1096V50.4286ZM50.1096 47.8571H52.681V50.4286H50.1096V47.8571ZM52.681 47.8571H55.2524V50.4286H52.681V47.8571ZM52.681 45.2857H55.2524V47.8571H52.681V45.2857ZM50.1096 45.2857H52.681V47.8571H50.1096V45.2857ZM47.5381 47.8571H50.1096V50.4286H47.5381V47.8571ZM47.5381 45.2857H50.1096V47.8571H47.5381V45.2857ZM47.5381 42.7143H50.1096V45.2857H47.5381V42.7143ZM47.5381 40.1429H50.1096V42.7143H47.5381V40.1429ZM47.5381 37.5714H50.1096V40.1429H47.5381V37.5714ZM47.5381 35H50.1096V37.5714H47.5381V35ZM47.5381 32.4286H50.1096V35H47.5381V32.4286ZM50.1096 32.4286H52.681V35H50.1096V32.4286ZM47.5381 29.8571H50.1096V32.4286H47.5381V29.8571ZM52.681 32.4286H55.2524V35H52.681V32.4286ZM50.1096 35H52.681V37.5714H50.1096V35ZM50.1096 37.5714H52.681V40.1429H50.1096V37.5714ZM50.1096 40.1429H52.681V42.7143H50.1096V40.1429ZM50.1096 42.7143H52.681V45.2857H50.1096V42.7143ZM74.2191 50.4286H76.7905V53H74.2191V50.4286ZM74.2191 47.8571H76.7905V50.4286H74.2191V47.8571ZM74.2191 45.2857H76.7905V47.8571H74.2191V45.2857ZM71.6477 47.8571H74.2191V50.4286H71.6477V47.8571ZM71.6477 45.2857H74.2191V47.8571H71.6477V45.2857ZM69.0762 45.2857H71.6477V47.8571H69.0762V45.2857ZM71.6477 42.7143H74.2191V45.2857H71.6477V42.7143ZM76.7905 45.2857H79.362V47.8571H76.7905V45.2857ZM76.7905 47.8571H79.362V50.4286H76.7905V47.8571ZM79.362 45.2857H81.9334V47.8571H79.362V45.2857ZM69.0762 42.7143H71.6477V45.2857H69.0762V42.7143ZM71.6477 40.1429H74.2191V42.7143H71.6477V40.1429ZM69.0762 40.1429H71.6477V42.7143H69.0762V40.1429ZM69.0762 37.5714H71.6477V40.1429H69.0762V37.5714ZM71.6477 37.5714H74.2191V40.1429H71.6477V37.5714ZM71.6477 35H74.2191V37.5714H71.6477V35ZM69.0762 35H71.6477V37.5714H69.0762V35ZM69.0762 32.4286H71.6477V35H69.0762V32.4286ZM71.6477 32.4286H74.2191V35H71.6477V32.4286ZM69.0762 27.2857H71.6477V29.8571H69.0762V27.2857ZM71.6477 27.2857H74.2191V29.8571H71.6477V27.2857ZM71.6477 29.8571H74.2191V32.4286H71.6477V29.8571ZM69.0762 29.8571H71.6477V32.4286H69.0762V29.8571ZM87.0762 50.4286H89.6477V53H87.0762V50.4286ZM87.0762 47.8571H89.6477V50.4286H87.0762V47.8571ZM87.0762 45.2857H89.6477V47.8571H87.0762V45.2857ZM84.5048 47.8571H87.0762V50.4286H84.5048V47.8571ZM84.5048 45.2857H87.0762V47.8571H84.5048V45.2857ZM81.9334 45.2857H84.5048V47.8571H81.9334V45.2857ZM81.9334 42.7143H84.5048V45.2857H81.9334V42.7143ZM89.6477 45.2857H92.2191V47.8571H89.6477V45.2857ZM89.6477 47.8571H92.2191V50.4286H89.6477V47.8571ZM89.6477 42.7143H92.2191V45.2857H89.6477V42.7143ZM92.2191 45.2857H94.7905V47.8571H92.2191V45.2857ZM92.2191 42.7143H94.7905V45.2857H92.2191V42.7143ZM79.362 42.7143H81.9334V45.2857H79.362V42.7143ZM89.6477 27.2857H92.2191V29.8571H89.6477V27.2857ZM92.2191 27.2857H94.7905V29.8571H92.2191V27.2857ZM92.2191 29.8571H94.7905V32.4286H92.2191V29.8571ZM92.2191 32.4286H94.7905V35H92.2191V32.4286ZM92.2191 35H94.7905V37.5714H92.2191V35ZM92.2191 37.5714H94.7905V40.1429H92.2191V37.5714ZM89.6477 37.5714H92.2191V40.1429H89.6477V37.5714ZM89.6477 40.1429H92.2191V42.7143H89.6477V40.1429ZM89.6477 35H92.2191V37.5714H89.6477V35ZM89.6477 32.4286H92.2191V35H89.6477V32.4286ZM89.6477 29.8571H92.2191V32.4286H89.6477V29.8571ZM92.2191 40.1429H94.7905V42.7143H92.2191V40.1429ZM81.9334 40.1429H84.5048V42.7143H81.9334V40.1429ZM79.362 40.1429H81.9334V42.7143H79.362V40.1429ZM79.362 37.5714H81.9334V40.1429H79.362V37.5714ZM81.9334 37.5714H84.5048V40.1429H81.9334V37.5714ZM81.9334 35H84.5048V37.5714H81.9334V35ZM79.362 35H81.9334V37.5714H79.362V35ZM79.362 32.4286H81.9334V35H79.362V32.4286ZM81.9334 32.4286H84.5048V35H81.9334V32.4286ZM79.362 27.2857H81.9334V29.8571H79.362V27.2857ZM81.9334 27.2857H84.5048V29.8571H81.9334V27.2857ZM81.9334 29.8571H84.5048V32.4286H81.9334V29.8571ZM79.362 29.8571H81.9334V32.4286H79.362V29.8571ZM106.016 40.1429H108.588V42.7143H106.016V40.1429ZM106.016 37.5714H108.588V40.1429H106.016V37.5714ZM108.588 37.5714H111.159V40.1429H108.588V37.5714ZM108.588 40.1429H111.159V42.7143H108.588V40.1429ZM108.588 42.7143H111.159V45.2857H108.588V42.7143ZM106.016 42.7143H108.588V45.2857H106.016V42.7143ZM106.016 32.4286H108.588V35H106.016V32.4286ZM106.016 35H108.588V37.5714H106.016V35ZM103.445 37.5714H106.016V40.1429H103.445V37.5714ZM103.445 35H106.016V37.5714H103.445V35ZM103.445 32.4286H106.016V35H103.445V32.4286ZM98.3019 27.2857H100.873V29.8571H98.3019V27.2857ZM100.873 27.2857H103.445V29.8571H100.873V27.2857ZM103.445 27.2857H106.016V29.8571H103.445V27.2857ZM103.445 29.8571H106.016V32.4286H103.445V29.8571ZM100.873 29.8571H103.445V32.4286H100.873V29.8571ZM98.3019 29.8571H100.873V32.4286H98.3019V29.8571ZM98.3019 32.4286H100.873V35H98.3019V32.4286ZM100.873 32.4286H103.445V35H100.873V32.4286ZM100.873 35H103.445V37.5714H100.873V35ZM100.873 37.5714H103.445V40.1429H100.873V37.5714ZM98.3019 37.5714H100.873V40.1429H98.3019V37.5714ZM98.3019 35H100.873V37.5714H98.3019V35ZM98.3019 40.1429H100.873V42.7143H98.3019V40.1429ZM100.873 40.1429H103.445V42.7143H100.873V40.1429ZM100.873 42.7143H103.445V45.2857H100.873V42.7143ZM100.873 45.2857H103.445V47.8571H100.873V45.2857ZM100.873 47.8571H103.445V50.4286H100.873V47.8571ZM100.873 50.4286H103.445V53H100.873V50.4286ZM98.3019 50.4286H100.873V53H98.3019V50.4286ZM98.3019 47.8571H100.873V50.4286H98.3019V47.8571ZM98.3019 45.2857H100.873V47.8571H98.3019V45.2857ZM98.3019 42.7143H100.873V45.2857H98.3019V42.7143ZM108.588 45.2857H111.159V47.8571H108.588V45.2857ZM108.588 47.8571H111.159V50.4286H108.588V47.8571ZM111.159 45.2857H113.73V47.8571H111.159V45.2857ZM111.159 42.7143H113.73V45.2857H111.159V42.7143ZM111.159 47.8571H113.73V50.4286H111.159V47.8571ZM111.159 50.4286H113.73V53H111.159V50.4286ZM113.73 50.4286H116.302V53H113.73V50.4286ZM116.302 50.4286H118.873V53H116.302V50.4286ZM116.302 47.8571H118.873V50.4286H116.302V47.8571ZM116.302 45.2857H118.873V47.8571H116.302V45.2857ZM113.73 45.2857H116.302V47.8571H113.73V45.2857ZM113.73 47.8571H116.302V50.4286H113.73V47.8571ZM113.73 42.7143H116.302V45.2857H113.73V42.7143ZM116.302 40.1429H118.873V42.7143H116.302V40.1429ZM116.302 37.5714H118.873V40.1429H116.302V37.5714ZM116.302 42.7143H118.873V45.2857H116.302V42.7143ZM113.73 40.1429H116.302V42.7143H113.73V40.1429ZM113.73 37.5714H116.302V40.1429H113.73V37.5714ZM113.73 35H116.302V37.5714H113.73V35ZM116.302 35H118.873V37.5714H116.302V35ZM116.302 32.4286H118.873V35H116.302V32.4286ZM113.73 27.2857H116.302V29.8571H113.73V27.2857ZM116.302 27.2857H118.873V29.8571H116.302V27.2857ZM116.302 29.8571H118.873V32.4286H116.302V29.8571ZM113.73 29.8571H116.302V32.4286H113.73V29.8571ZM113.73 32.4286H116.302V35H113.73V32.4286ZM122.418 27.2857H124.99V29.8571H122.418V27.2857ZM124.99 27.2857H127.561V29.8571H124.99V27.2857ZM124.99 29.8571H127.561V32.4286H124.99V29.8571ZM124.99 32.4286H127.561V35H124.99V32.4286ZM124.99 35H127.561V37.5714H124.99V35ZM122.418 35H124.99V37.5714H122.418V35ZM122.418 32.4286H124.99V35H122.418V32.4286ZM122.418 29.8571H124.99V32.4286H122.418V29.8571ZM122.418 37.5714H124.99V40.1429H122.418V37.5714ZM122.418 40.1429H124.99V42.7143H122.418V40.1429ZM122.418 42.7143H124.99V45.2857H122.418V42.7143ZM124.99 40.1429H127.561V42.7143H124.99V40.1429ZM124.99 37.5714H127.561V40.1429H124.99V37.5714ZM124.99 42.7143H127.561V45.2857H124.99V42.7143ZM124.99 45.2857H127.561V47.8571H124.99V45.2857ZM122.418 47.8571H124.99V50.4286H122.418V47.8571ZM122.418 45.2857H124.99V47.8571H122.418V45.2857ZM122.418 50.4286H124.99V53H122.418V50.4286ZM124.99 50.4286H127.561V53H124.99V50.4286ZM124.99 47.8571H127.561V50.4286H124.99V47.8571ZM127.561 50.4286H130.132V53H127.561V50.4286ZM130.132 50.4286H132.704V53H130.132V50.4286ZM132.704 50.4286H135.275V53H132.704V50.4286ZM132.704 47.8571H135.275V50.4286H132.704V47.8571ZM130.132 47.8571H132.704V50.4286H130.132V47.8571ZM127.561 47.8571H130.132V50.4286H127.561V47.8571ZM143.943 27.2857H146.514V29.8571H143.943V27.2857ZM141.371 27.2857H143.943V29.8571H141.371V27.2857ZM141.371 29.8571H143.943V32.4286H141.371V29.8571ZM143.943 29.8571H146.514V32.4286H143.943V29.8571ZM146.514 29.8571H149.086V32.4286H146.514V29.8571ZM146.514 27.2857H149.086V29.8571H146.514V27.2857ZM149.086 27.2857H151.657V29.8571H149.086V27.2857ZM151.657 27.2857H154.229V29.8571H151.657V27.2857ZM151.657 29.8571H154.229V32.4286H151.657V29.8571ZM149.086 29.8571H151.657V32.4286H149.086V29.8571ZM149.086 32.4286H151.657V35H149.086V32.4286ZM151.657 32.4286H154.229V35H151.657V32.4286ZM154.229 29.8571H156.8V32.4286H154.229V29.8571ZM154.229 32.4286H156.8V35H154.229V32.4286ZM154.229 35H156.8V37.5714H154.229V35ZM154.229 37.5714H156.8V40.1429H154.229V37.5714ZM154.229 40.1429H156.8V42.7143H154.229V40.1429ZM154.229 42.7143H156.8V45.2857H154.229V42.7143ZM154.229 45.2857H156.8V47.8571H154.229V45.2857ZM154.229 47.8571H156.8V50.4286H154.229V47.8571ZM151.657 47.8571H154.229V50.4286H151.657V47.8571ZM151.657 45.2857H154.229V47.8571H151.657V45.2857ZM151.657 42.7143H154.229V45.2857H151.657V42.7143ZM151.657 40.1429H154.229V42.7143H151.657V40.1429ZM151.657 37.5714H154.229V40.1429H151.657V37.5714ZM151.657 35H154.229V37.5714H151.657V35ZM149.086 45.2857H151.657V47.8571H149.086V45.2857ZM149.086 47.8571H151.657V50.4286H149.086V47.8571ZM151.657 50.4286H154.229V53H151.657V50.4286ZM149.086 50.4286H151.657V53H149.086V50.4286ZM146.514 50.4286H149.086V53H146.514V50.4286ZM146.514 47.8571H149.086V50.4286H146.514V47.8571ZM143.943 50.4286H146.514V53H143.943V50.4286ZM141.371 50.4286H143.943V53H141.371V50.4286ZM141.371 47.8571H143.943V50.4286H141.371V47.8571ZM143.943 47.8571H146.514V50.4286H143.943V47.8571ZM143.943 45.2857H146.514V47.8571H143.943V45.2857ZM141.371 45.2857H143.943V47.8571H141.371V45.2857ZM138.8 47.8571H141.371V50.4286H138.8V47.8571ZM138.8 45.2857H141.371V47.8571H138.8V45.2857ZM138.8 42.7143H141.371V45.2857H138.8V42.7143ZM138.8 40.1429H141.371V42.7143H138.8V40.1429ZM138.8 37.5714H141.371V40.1429H138.8V37.5714ZM138.8 35H141.371V37.5714H138.8V35ZM138.8 32.4286H141.371V35H138.8V32.4286ZM141.371 32.4286H143.943V35H141.371V32.4286ZM138.8 29.8571H141.371V32.4286H138.8V29.8571ZM143.943 32.4286H146.514V35H143.943V32.4286ZM141.371 35H143.943V37.5714H141.371V35ZM141.371 37.5714H143.943V40.1429H141.371V37.5714ZM141.371 40.1429H143.943V42.7143H141.371V40.1429ZM141.371 42.7143H143.943V45.2857H141.371V42.7143ZM165.481 29.8571H168.052V32.4286H165.481V29.8571ZM168.052 29.8571H170.624V32.4286H168.052V29.8571ZM168.052 27.2857H170.624V29.8571H168.052V27.2857ZM170.624 29.8571H173.195V32.4286H170.624V29.8571ZM170.624 32.4286H173.195V35H170.624V32.4286ZM173.195 32.4286H175.767V35H173.195V32.4286ZM168.052 32.4286H170.624V35H168.052V32.4286ZM165.481 32.4286H168.052V35H165.481V32.4286ZM162.91 32.4286H165.481V35H162.91V32.4286ZM162.91 35H165.481V37.5714H162.91V35ZM160.338 35H162.91V37.5714H160.338V35ZM165.481 35H168.052V37.5714H165.481V35ZM162.91 37.5714H165.481V40.1429H162.91V37.5714ZM162.91 40.1429H165.481V42.7143H162.91V40.1429ZM162.91 42.7143H165.481V45.2857H162.91V42.7143ZM165.481 42.7143H168.052V45.2857H165.481V42.7143ZM168.052 42.7143H170.624V45.2857H168.052V42.7143ZM170.624 42.7143H173.195V45.2857H170.624V42.7143ZM173.195 42.7143H175.767V45.2857H173.195V42.7143ZM175.767 42.7143H178.338V45.2857H175.767V42.7143ZM175.767 40.1429H178.338V42.7143H175.767V40.1429ZM175.767 37.5714H178.338V40.1429H175.767V37.5714ZM175.767 35H178.338V37.5714H175.767V35ZM173.195 35H175.767V37.5714H173.195V35ZM170.624 35H173.195V37.5714H170.624V35ZM173.195 37.5714H175.767V40.1429H173.195V37.5714ZM173.195 40.1429H175.767V42.7143H173.195V40.1429ZM173.195 45.2857H175.767V47.8571H173.195V45.2857ZM175.767 45.2857H178.338V47.8571H175.767V45.2857ZM175.767 47.8571H178.338V50.4286H175.767V47.8571ZM175.767 50.4286H178.338V53H175.767V50.4286ZM173.195 50.4286H175.767V53H173.195V50.4286ZM173.195 47.8571H175.767V50.4286H173.195V47.8571ZM170.624 45.2857H173.195V47.8571H170.624V45.2857ZM168.052 45.2857H170.624V47.8571H168.052V45.2857ZM165.481 45.2857H168.052V47.8571H165.481V45.2857ZM162.91 45.2857H165.481V47.8571H162.91V45.2857ZM162.91 47.8571H165.481V50.4286H162.91V47.8571ZM162.91 50.4286H165.481V53H162.91V50.4286ZM160.338 50.4286H162.91V53H160.338V50.4286ZM160.338 47.8571H162.91V50.4286H160.338V47.8571ZM160.338 45.2857H162.91V47.8571H160.338V45.2857ZM160.338 42.7143H162.91V45.2857H160.338V42.7143ZM160.338 40.1429H162.91V42.7143H160.338V40.1429ZM160.338 37.5714H162.91V40.1429H160.338V37.5714ZM187.019 27.2857H189.591V29.8571H187.019V27.2857ZM184.448 27.2857H187.019V29.8571H184.448V27.2857ZM184.448 29.8571H187.019V32.4286H184.448V29.8571ZM187.019 29.8571H189.591V32.4286H187.019V29.8571ZM189.591 29.8571H192.162V32.4286H189.591V29.8571ZM189.591 27.2857H192.162V29.8571H189.591V27.2857ZM192.162 27.2857H194.733V29.8571H192.162V27.2857ZM194.733 27.2857H197.305V29.8571H194.733V27.2857ZM194.733 29.8571H197.305V32.4286H194.733V29.8571ZM192.162 29.8571H194.733V32.4286H192.162V29.8571ZM192.162 32.4286H194.733V35H192.162V32.4286ZM194.733 32.4286H197.305V35H194.733V32.4286ZM197.305 29.8571H199.876V32.4286H197.305V29.8571ZM197.305 32.4286H199.876V35H197.305V32.4286ZM197.305 35H199.876V37.5714H197.305V35ZM197.305 37.5714H199.876V40.1429H197.305V37.5714ZM197.305 40.1429H199.876V42.7143H197.305V40.1429ZM197.305 42.7143H199.876V45.2857H197.305V42.7143ZM197.305 45.2857H199.876V47.8571H197.305V45.2857ZM197.305 47.8571H199.876V50.4286H197.305V47.8571ZM194.733 47.8571H197.305V50.4286H194.733V47.8571ZM194.733 45.2857H197.305V47.8571H194.733V45.2857ZM194.733 42.7143H197.305V45.2857H194.733V42.7143ZM194.733 40.1429H197.305V42.7143H194.733V40.1429ZM194.733 37.5714H197.305V40.1429H194.733V37.5714ZM194.733 35H197.305V37.5714H194.733V35ZM192.162 45.2857H194.733V47.8571H192.162V45.2857ZM192.162 47.8571H194.733V50.4286H192.162V47.8571ZM194.733 50.4286H197.305V53H194.733V50.4286ZM192.162 50.4286H194.733V53H192.162V50.4286ZM189.591 50.4286H192.162V53H189.591V50.4286ZM189.591 47.8571H192.162V50.4286H189.591V47.8571ZM187.019 50.4286H189.591V53H187.019V50.4286ZM184.448 50.4286H187.019V53H184.448V50.4286ZM184.448 47.8571H187.019V50.4286H184.448V47.8571ZM187.019 47.8571H189.591V50.4286H187.019V47.8571ZM184.448 45.2857H187.019V47.8571H184.448V45.2857ZM181.876 47.8571H184.448V50.4286H181.876V47.8571ZM181.876 45.2857H184.448V47.8571H181.876V45.2857ZM181.876 42.7143H184.448V45.2857H181.876V42.7143ZM181.876 40.1429H184.448V42.7143H181.876V40.1429ZM181.876 37.5714H184.448V40.1429H181.876V37.5714ZM181.876 35H184.448V37.5714H181.876V35ZM181.876 32.4286H184.448V35H181.876V32.4286ZM184.448 32.4286H187.019V35H184.448V32.4286ZM181.876 29.8571H184.448V32.4286H181.876V29.8571ZM184.448 35H187.019V37.5714H184.448V35ZM184.448 37.5714H187.019V40.1429H184.448V37.5714ZM184.448 40.1429H187.019V42.7143H184.448V40.1429ZM184.448 42.7143H187.019V45.2857H184.448V42.7143ZM181.876 50.4286H184.448V53H181.876V50.4286ZM181.876 27.2857H184.448V29.8571H181.876V27.2857Z" fill="#FFF5FE"/>
<path d="M264 61H222V55.75H264V61ZM245.625 40H250.875V45.25H245.625V50.5H240.375V45.25H235.125V40H240.375V19H245.625V40ZM235.125 39.999H229.875V34.749H235.125V39.999ZM256.125 39.999H250.875V34.749H256.125V39.999Z" fill="#FFF5FE"/>
</svg>
