<svg width="165" height="204" viewBox="0 0 165 204" fill="none" xmlns="http://www.w3.org/2000/svg">
<path d="M13.6725 0C24.9524 0 36.2322 0 47.8539 0C47.8539 2.26415 47.8539 4.52829 47.8539 6.86105C52.3586 6.86105 56.8632 6.86105 61.5044 6.86105C61.5044 9.1252 61.5044 11.3893 61.5044 13.7221C63.7604 13.7221 66.0163 13.7221 68.3407 13.7221C68.3407 15.9862 68.3407 18.2504 68.3407 20.5832C72.838 20.5832 77.3354 20.5832 81.9691 20.5832C81.9691 18.319 81.9691 16.0549 81.9691 13.7221C84.2251 13.7221 86.481 13.7221 88.8054 13.7221C88.8054 11.458 88.8054 9.19381 88.8054 6.86105C91.0613 6.86105 93.3173 6.86105 95.6416 6.86105C95.6416 4.5969 95.6416 2.33276 95.6416 0C106.921 0 118.201 0 129.823 0C129.823 2.26415 129.823 4.52829 129.823 6.86105C132.072 6.86105 134.32 6.86105 136.637 6.86105C136.637 9.1252 136.637 11.3893 136.637 13.7221C138.893 13.7221 141.149 13.7221 143.473 13.7221C143.473 27.2924 143.473 40.8626 143.473 54.8441C145.729 54.8441 147.985 54.8441 150.31 54.8441C150.31 57.1083 150.31 59.3724 150.31 61.7052C152.566 61.7052 154.822 61.7052 157.146 61.7052C157.146 63.9693 157.146 66.2335 157.146 68.5662C159.402 68.5662 161.658 68.5662 163.982 68.5662C163.982 86.6721 163.982 104.778 163.982 123.433C161.726 123.433 159.47 123.433 157.146 123.433C157.146 125.127 157.146 126.821 157.146 128.567C154.89 128.567 152.634 128.567 150.31 128.567C150.31 130.831 150.31 133.096 150.31 135.428C148.054 135.428 145.798 135.428 143.473 135.428C143.473 137.692 143.473 139.957 143.473 142.289C138.969 142.289 134.464 142.289 129.823 142.289C129.823 146.803 129.823 151.317 129.823 155.967C132.072 155.967 134.32 155.967 136.637 155.967C136.637 158.231 136.637 160.495 136.637 162.828C138.893 162.828 141.149 162.828 143.473 162.828C143.473 167.364 143.473 171.899 143.473 176.572C141.217 176.572 138.962 176.572 136.637 176.572C136.637 178.829 136.637 181.086 136.637 183.411C132.133 183.411 127.628 183.411 122.987 183.411C122.987 187.94 122.987 192.468 122.987 197.133C120.731 197.133 118.475 197.133 116.15 197.133C116.15 199.398 116.15 201.662 116.15 203.995C109.383 203.995 102.615 203.995 95.6416 203.995C95.6416 201.73 95.6416 199.466 95.6416 197.133C88.8883 197.133 82.1349 197.133 75.1769 197.133C75.1769 199.39 75.1769 201.647 75.1769 203.972C75.1374 204.012 75.0839 203.997 75.0313 203.997C75.0134 203.997 74.9954 203.997 74.9769 203.997C74.9484 203.997 74.9484 203.997 74.9193 203.997C74.8547 203.997 74.7901 203.997 74.7254 203.997C74.6788 203.997 74.6322 203.997 74.5856 203.997C74.4562 203.997 74.3269 203.997 74.1975 203.997C74.0573 203.997 73.917 203.997 73.7768 203.997C73.5305 203.997 73.2843 203.997 73.0381 203.997C72.7738 203.997 72.5095 203.997 72.2452 203.997C72.2202 203.997 72.2202 203.997 72.1947 203.997C72.1097 203.997 72.0247 203.997 71.9397 203.997C71.324 203.997 70.7082 203.997 70.0924 203.997C69.4824 203.997 68.8724 203.997 68.2624 203.997C68.2435 203.997 68.2245 203.997 68.205 203.997C68.0322 203.997 67.8593 203.997 67.6864 203.997C67.2566 203.997 66.8268 203.997 66.397 203.997C66.3774 203.997 66.3578 203.997 66.3377 203.997C65.385 203.996 64.4323 203.996 63.4795 203.996C63.1488 203.996 62.8181 203.996 62.4874 203.996C62.4567 203.996 62.4567 203.996 62.4253 203.996C61.4722 203.996 60.5192 203.996 59.5662 203.996C59.5043 203.996 59.4424 203.996 59.3806 203.996C58.9707 203.996 58.5608 203.996 58.1509 203.996C57.3352 203.996 56.5196 203.996 55.7039 203.995C55.6651 203.995 55.6262 203.995 55.5874 203.995C54.3906 203.995 53.1939 203.995 51.9971 203.995C51.9488 203.995 51.9005 203.995 51.8523 203.995C50.5121 203.995 49.172 203.995 47.8318 203.995C47.8318 201.73 47.8318 199.466 47.8318 197.133C45.5759 197.133 43.3199 197.133 40.9956 197.133C40.9956 192.605 40.9956 188.077 40.9956 183.411C36.4836 183.411 31.9717 183.411 27.323 183.411C27.323 181.155 27.323 178.898 27.323 176.572C25.0743 176.572 22.8256 176.572 20.5088 176.572C20.5088 172.037 20.5088 167.501 20.5088 162.828C22.7575 162.828 25.0062 162.828 27.323 162.828C27.323 160.564 27.323 158.3 27.323 155.967C29.579 155.967 31.835 155.967 34.1593 155.967C34.1593 151.453 34.1593 146.94 34.1593 142.289C29.6546 142.289 25.15 142.289 20.5088 142.289C20.5088 140.025 20.5088 137.761 20.5088 135.428C18.2528 135.428 15.9969 135.428 13.6725 135.428C13.6725 133.164 13.6725 130.9 13.6725 128.567C11.4166 128.567 9.1606 128.567 6.83627 128.567C6.83627 126.873 6.83627 125.178 6.83627 123.433C4.5803 123.433 2.32433 123.433 0 123.433C0 105.327 0 87.2208 0 68.5662C2.25597 68.5662 4.51194 68.5662 6.83627 68.5662C6.83627 66.3021 6.83627 64.0379 6.83627 61.7052C11.3482 61.7052 15.8601 61.7052 20.5088 61.7052C20.5088 59.4483 20.5088 57.1915 20.5088 54.8663C18.2528 54.8663 15.9969 54.8663 13.6725 54.8663C13.6725 50.3453 13.6725 45.8243 13.6725 41.1663C11.4166 41.1663 9.1606 41.1663 6.83627 41.1663C6.83627 38.9022 6.83627 36.638 6.83627 34.3053C4.5803 34.3053 2.32433 34.3053 0 34.3053C0 27.5128 0 20.7204 0 13.7221C2.25597 13.7221 4.51194 13.7221 6.83627 13.7221C6.83627 11.458 6.83627 9.19381 6.83627 6.86105C9.09224 6.86105 11.3482 6.86105 13.6725 6.86105C13.6725 4.5969 13.6725 2.33276 13.6725 0Z" fill="#FEAACE"/>
<path d="M20.5269 41.2212C25.0428 41.2212 29.5588 41.2212 34.2115 41.2212C34.2115 43.4843 34.2115 45.7473 34.2115 48.079C36.4622 48.079 38.7129 48.079 41.0318 48.079C41.0318 45.8159 41.0318 43.5528 41.0318 41.2212C45.5477 41.2212 50.0636 41.2212 54.7164 41.2212C54.7164 45.7473 54.7164 50.2735 54.7164 54.9368C52.4584 54.9368 50.2005 54.9368 47.8741 54.9368C47.8741 57.1926 47.8741 59.4483 47.8741 61.7725C50.132 61.7725 52.39 61.7725 54.7164 61.7725C54.7164 65.7365 54.7164 69.7005 54.7164 73.7847C77.2741 73.7847 99.8319 73.7847 123.073 73.7847C123.073 76.0405 123.073 78.2962 123.073 80.6204C93.7416 80.6204 64.4099 80.6204 34.1895 80.6204C34.1895 82.8835 34.1895 85.1465 34.1895 87.4782C31.9388 87.4782 29.6881 87.4782 27.3692 87.4782C27.3692 101.049 27.3692 114.62 27.3692 128.603C29.6272 128.603 31.8851 128.603 34.2115 128.603C34.2115 130.859 34.2115 133.114 34.2115 135.439C65.7939 135.439 97.3762 135.439 129.916 135.439C129.916 133.183 129.916 130.927 129.916 128.603C132.174 128.603 134.431 128.603 136.758 128.603C136.758 117.295 136.758 105.987 136.758 94.336C139.016 94.336 141.274 94.336 143.6 94.336C143.6 105.644 143.6 116.952 143.6 128.603C145.858 128.603 148.116 128.603 150.442 128.603C150.442 130.866 150.442 133.129 150.442 135.461C148.184 135.461 145.927 135.461 143.6 135.461C143.6 137.724 143.6 139.987 143.6 142.318C139.092 142.318 134.583 142.318 129.938 142.318C129.938 146.83 129.938 151.342 129.938 155.99C132.188 155.99 134.439 155.99 136.758 155.99C136.758 158.253 136.758 160.516 136.758 162.848C139.016 162.848 141.274 162.848 143.6 162.848C143.6 167.381 143.6 171.915 143.6 176.585C141.342 176.585 139.084 176.585 136.758 176.585C136.758 178.841 136.758 181.097 136.758 183.421C132.249 183.421 127.741 183.421 123.095 183.421C123.095 187.947 123.095 192.473 123.095 197.137C120.837 197.137 118.579 197.137 116.253 197.137C116.253 199.4 116.253 201.663 116.253 203.994C109.479 203.994 102.705 203.994 95.7261 203.994C95.7261 201.731 95.7261 199.468 95.7261 197.137C88.9668 197.137 82.2075 197.137 75.2433 197.137C75.2433 199.392 75.2433 201.648 75.2433 203.972C75.2038 204.012 75.1502 203.997 75.0976 203.997C75.0796 203.997 75.0617 203.997 75.0431 203.997C75.0241 203.997 75.0051 203.997 74.9855 203.997C74.9208 203.997 74.8561 203.997 74.7914 203.997C74.7448 203.997 74.6981 203.997 74.6514 203.997C74.522 203.997 74.3925 203.997 74.263 203.997C74.1227 203.997 73.9823 203.997 73.8419 203.997C73.5955 203.997 73.349 203.997 73.1026 203.997C72.8381 203.997 72.5735 203.997 72.309 203.997C72.2839 203.997 72.2839 203.997 72.2584 203.997C72.1734 203.997 72.0883 203.997 72.0033 203.997C71.3869 203.997 70.7706 203.997 70.1543 203.997C69.5438 203.997 68.9332 203.997 68.3227 203.997C68.2943 203.997 68.2943 203.997 68.2653 203.997C68.0922 203.997 67.9192 203.997 67.7462 203.997C67.316 203.997 66.8858 203.997 66.4556 203.997C66.4262 203.996 66.4262 203.996 66.3963 203.996C65.4427 203.996 64.4892 203.996 63.5356 203.996C63.2046 203.996 62.8736 203.996 62.5426 203.996C62.5221 203.996 62.5016 203.996 62.4804 203.996C61.5265 203.996 60.5726 203.996 59.6188 203.996C59.5568 203.996 59.4949 203.996 59.433 203.996C59.0228 203.996 58.6125 203.996 58.2022 203.996C57.3858 203.996 56.5695 203.995 55.7531 203.995C55.7142 203.995 55.6753 203.995 55.6364 203.995C54.4386 203.995 53.2408 203.995 52.043 203.995C51.9947 203.995 51.9464 203.995 51.898 203.995C50.5567 203.995 49.2154 203.995 47.8741 203.994C47.8741 201.731 47.8741 199.468 47.8741 197.137C45.6161 197.137 43.3582 197.137 41.0318 197.137C41.0318 192.611 41.0318 188.084 41.0318 183.421C36.5158 183.421 31.9999 183.421 27.3472 183.421C27.3472 181.165 27.3472 178.91 27.3472 176.585C25.0965 176.585 22.8458 176.585 20.5269 176.585C20.5269 172.052 20.5269 167.518 20.5269 162.848C22.7776 162.848 25.0283 162.848 27.3472 162.848C27.3472 160.585 27.3472 158.322 27.3472 155.99C29.6051 155.99 31.8631 155.99 34.1895 155.99C34.1895 151.478 34.1895 146.967 34.1895 142.318C29.6808 142.318 25.1722 142.318 20.5269 142.318C20.5269 140.055 20.5269 137.792 20.5269 135.461C18.269 135.461 16.011 135.461 13.6846 135.461C13.6846 133.198 13.6846 130.935 13.6846 128.603C11.4267 128.603 9.16869 128.603 6.84231 128.603C6.84231 126.909 6.84231 125.216 6.84231 123.471C4.58435 123.471 2.32638 123.471 0 123.471C0 105.373 0 87.276 0 68.6303C2.25796 68.6303 4.51592 68.6303 6.84231 68.6303C6.84231 66.3672 6.84231 64.1041 6.84231 61.7725C11.3582 61.7725 15.8742 61.7725 20.5269 61.7725C20.5269 54.9906 20.5269 48.2086 20.5269 41.2212Z" fill="#7F1E65"/>
<path d="M41.3451 80.6372C68.3701 80.6372 95.395 80.6372 123.239 80.6372C123.239 82.8915 123.239 85.1459 123.239 87.4685C125.493 87.4685 127.748 87.4685 130.071 87.4685C130.071 89.7302 130.071 91.9918 130.071 94.3219C132.325 94.3219 134.58 94.3219 136.903 94.3219C136.903 105.623 136.903 116.924 136.903 128.567C134.648 128.567 132.394 128.567 130.071 128.567C130.071 130.821 130.071 133.076 130.071 135.398C98.5368 135.398 67.0028 135.398 34.5132 135.398C34.5132 133.144 34.5132 130.89 34.5132 128.567C32.2587 128.567 30.0042 128.567 27.6814 128.567C27.6814 117.266 27.6814 105.965 27.6814 94.3219C29.9359 94.3219 32.1904 94.3219 34.5132 94.3219C34.5132 92.0603 34.5132 89.7987 34.5132 87.4685C36.7677 87.4685 39.0222 87.4685 41.3451 87.4685C41.3451 85.2142 41.3451 82.9599 41.3451 80.6372Z" fill="#FEFEFE"/>
<path d="M20.525 41.2212C25.0405 41.2212 29.5561 41.2212 34.2084 41.2212C34.2084 43.481 34.2084 45.7409 34.2084 48.0692C36.4589 48.0692 38.7093 48.0692 41.028 48.0692C41.028 45.8093 41.028 43.5495 41.028 41.2212C45.5435 41.2212 50.059 41.2212 54.7114 41.2212C54.7114 45.7409 54.7114 50.2605 54.7114 54.9172C52.4536 54.9172 50.1959 54.9172 47.8697 54.9172C47.8697 57.1697 47.8697 59.4223 47.8697 61.7431C50.1274 61.7431 52.3852 61.7431 54.7114 61.7431C54.7114 65.7014 54.7114 69.6598 54.7114 73.7381C77.2671 73.7381 99.8227 73.7381 123.062 73.7381C123.062 75.9906 123.062 78.2432 123.062 80.564C93.733 80.564 64.404 80.564 34.1863 80.564C34.1863 82.8238 34.1863 85.0837 34.1863 87.412C31.9359 87.412 29.6854 87.412 27.3667 87.412C27.3667 89.6718 27.3667 91.9317 27.3667 94.26C25.109 94.26 22.8512 94.26 20.525 94.26C20.525 105.552 20.525 116.844 20.525 128.478C16.0095 128.478 11.494 128.478 6.84168 128.478C6.84168 126.787 6.84168 125.095 6.84168 123.353C4.58392 123.353 2.32617 123.353 0 123.353C0 105.281 0 87.2101 0 68.5911C2.25775 68.5911 4.51551 68.5911 6.84168 68.5911C6.84168 66.3312 6.84168 64.0714 6.84168 61.7431C11.3572 61.7431 15.8727 61.7431 20.525 61.7431C20.525 54.9708 20.525 48.1986 20.525 41.2212Z" fill="#FEAACE"/>
<path d="M40.9203 142.319C49.991 142.319 59.0616 142.319 68.4071 142.319C68.4071 144.579 68.4071 146.84 68.4071 149.169C70.6675 149.169 72.9278 149.169 75.2566 149.169C75.2566 146.909 75.2566 144.648 75.2566 142.319C79.792 142.319 84.3273 142.319 89 142.319C89 144.579 89 146.84 89 149.169C91.2604 149.169 93.5207 149.169 95.8496 149.169C95.8496 151.43 95.8496 153.691 95.8496 156.02C98.1172 156.02 100.385 156.02 102.721 156.02C102.721 158.281 102.721 160.541 102.721 162.871C107.249 162.871 111.777 162.871 116.442 162.871C116.442 174.16 116.442 185.449 116.442 197.08C109.654 197.08 102.866 197.08 95.8717 197.08C95.8717 194.826 95.8717 192.573 95.8717 190.251C86.8084 190.251 77.7451 190.251 68.4071 190.251C68.4071 192.505 68.4071 194.758 68.4071 197.08C61.6041 197.08 54.8012 197.08 47.792 197.08C47.792 185.783 47.792 174.487 47.792 162.848C52.32 162.848 56.848 162.848 61.5133 162.848C61.5133 160.595 61.5133 158.342 61.5133 156.02C56.9853 156.02 52.4573 156.02 47.792 156.02C47.792 153.759 47.792 151.498 47.792 149.169C45.5244 149.169 43.2567 149.169 40.9203 149.169C40.9203 146.909 40.9203 144.648 40.9203 142.319Z" fill="#FEFEFE"/>
<path d="M20.4602 41.2212C24.9908 41.2212 29.5215 41.2212 34.1894 41.2212C34.1894 43.4865 34.1894 45.7518 34.1894 48.0858C36.4474 48.0858 38.7054 48.0858 41.0318 48.0858C41.0318 45.8205 41.0318 43.5552 41.0318 41.2212C45.5625 41.2212 50.0931 41.2212 54.7611 41.2212C54.7611 45.7518 54.7611 50.2825 54.7611 54.9504C52.4957 54.9504 50.2304 54.9504 47.8965 54.9504C47.8965 57.2084 47.8965 59.4664 47.8965 61.7929C50.1618 61.7929 52.4271 61.7929 54.7611 61.7929C54.7611 65.7535 54.7611 69.7142 54.7611 73.7948C50.2304 73.7948 45.6998 73.7948 41.0318 73.7948C41.0318 72.1068 41.0318 70.4188 41.0318 68.6796C38.7738 68.6796 36.5158 68.6796 34.1894 68.6796C34.1894 70.9376 34.1894 73.1956 34.1894 75.5221C29.6587 75.5221 25.1281 75.5221 20.4602 75.5221C20.4602 64.2028 20.4602 52.8835 20.4602 41.2212Z" fill="#FEFEFE"/>
<path d="M40.9203 73.7168C68.0271 73.7168 95.1338 73.7168 123.062 73.7168C123.062 76.0005 123.062 78.2842 123.062 80.6372C95.9552 80.6372 68.8485 80.6372 40.9203 80.6372C40.9203 78.3534 40.9203 76.0697 40.9203 73.7168Z" fill="#7F1E65"/>
<path d="M95.9823 142.319C104.919 142.319 113.855 142.319 123.062 142.319C123.062 144.581 123.062 146.844 123.062 149.175C120.828 149.175 118.594 149.175 116.292 149.175C116.292 151.437 116.292 153.699 116.292 156.03C111.831 156.03 107.37 156.03 102.774 156.03C102.774 158.286 102.774 160.541 102.774 162.864C107.235 162.864 111.696 162.864 116.292 162.864C116.292 176.439 116.292 190.014 116.292 204C109.59 204 102.888 204 95.9823 204C95.9823 199.475 95.9823 194.95 95.9823 190.288C95.9895 190.288 95.9967 190.288 96.0041 190.288C96.0041 192.543 96.0041 194.798 96.0041 197.122C102.692 197.122 109.38 197.122 116.27 197.122C116.27 185.824 116.27 174.527 116.27 162.886C111.809 162.886 107.348 162.886 102.752 162.886C102.752 160.624 102.752 158.362 102.752 156.03C100.518 156.03 98.284 156.03 95.9823 156.03C95.9823 151.506 95.9823 146.981 95.9823 142.319Z" fill="#FEAACE"/>
<path d="M150.442 61.6814C152.677 61.6814 154.911 61.6814 157.212 61.6814C157.212 63.9433 157.212 66.2052 157.212 68.5357C159.446 68.5357 161.681 68.5357 163.982 68.5357C163.982 86.6238 163.982 104.712 163.982 123.348C161.748 123.348 159.514 123.348 157.212 123.348C157.212 125.041 157.212 126.734 157.212 128.478C154.978 128.478 152.744 128.478 150.442 128.478C150.442 126.216 150.442 123.954 150.442 121.624C152.669 121.624 154.896 121.624 157.191 121.624C157.191 104.112 157.191 86.6002 157.191 68.5578C154.964 68.5578 152.737 68.5578 150.442 68.5578C150.442 66.2886 150.442 64.0194 150.442 61.6814Z" fill="#7F1E65"/>
<path d="M0 68.6018C2.28372 68.6018 4.56743 68.6018 6.92035 68.6018C6.92035 86.1015 6.92035 103.601 6.92035 121.631C9.20407 121.631 11.4878 121.631 13.8407 121.631C13.8407 123.891 13.8407 126.15 13.8407 128.478C11.557 128.478 9.27327 128.478 6.92035 128.478C6.92035 126.787 6.92035 125.096 6.92035 123.354C4.63664 123.354 2.35292 123.354 0 123.354C0 105.286 0 87.2175 0 68.6018Z" fill="#7F1D64"/>
<path d="M89.1132 6.92041C91.38 6.92041 93.6468 6.92041 95.9823 6.92041C95.9823 9.1888 95.9823 11.4572 95.9823 13.7943C93.7228 13.7943 91.4633 13.7943 89.1354 13.7943C89.1354 16.0627 89.1354 18.3311 89.1354 20.6682C86.8686 20.6682 84.6018 20.6682 82.2664 20.6682C82.2664 29.7344 82.2664 38.8007 82.2664 48.1416C79.9996 48.1416 77.7328 48.1416 75.3973 48.1416C75.3973 41.3438 75.3973 34.546 75.3973 27.5421C73.1305 27.5421 70.8638 27.5421 68.5283 27.5421C68.5283 25.2737 68.5283 23.0053 68.5283 20.6682C66.2688 20.6682 64.0093 20.6682 61.6814 20.6682C61.6814 18.3998 61.6814 16.1314 61.6814 13.7943C63.9482 13.7943 66.215 13.7943 68.5504 13.7943C68.5504 16.0627 68.5504 18.3311 68.5504 20.6682C73.0694 20.6682 77.5883 20.6682 82.2442 20.6682C82.2442 18.3998 82.2442 16.1314 82.2442 13.7943C84.511 13.7943 86.7778 13.7943 89.1132 13.7943C89.1132 11.5259 89.1132 9.25754 89.1132 6.92041Z" fill="#7F1E65"/>
<path d="M68.6636 190.159C77.6788 190.159 86.6939 190.159 95.9823 190.159C95.9823 192.442 95.9823 194.725 95.9823 197.077C89.2246 197.077 82.4668 197.077 75.5043 197.077C75.5043 199.352 75.5043 201.628 75.5043 203.972C75.4648 204.012 75.4113 203.997 75.3587 203.997C75.3317 203.997 75.3317 203.997 75.3042 203.997C75.2852 203.997 75.2662 203.997 75.2466 203.997C75.1819 203.997 75.1172 203.997 75.0526 203.997C75.0059 203.997 74.9593 203.997 74.9126 203.997C74.7832 203.997 74.6537 203.997 74.5243 203.997C74.384 203.997 74.2436 203.997 74.1033 203.997C73.8569 203.997 73.6105 203.997 73.3641 203.997C73.0997 203.997 72.8352 203.997 72.5707 203.997C72.5457 203.997 72.5457 203.997 72.5201 203.997C72.4351 203.997 72.3501 203.997 72.2651 203.997C71.6489 203.997 71.0327 203.997 70.4165 203.997C69.8061 203.997 69.1957 203.997 68.5853 203.996C68.5664 203.996 68.5475 203.996 68.5279 203.996C68.355 203.996 68.182 203.996 68.009 203.996C67.5789 203.996 67.1488 203.996 66.7187 203.996C66.6893 203.996 66.6893 203.996 66.6594 203.996C65.706 203.996 64.7527 203.996 63.7994 203.996C63.4685 203.996 63.1376 203.996 62.8066 203.996C62.7759 203.996 62.7759 203.996 62.7445 203.996C61.7908 203.996 60.8371 203.996 59.8835 203.996C59.8216 203.996 59.7597 203.996 59.6978 203.996C59.2876 203.996 58.8774 203.996 58.4673 203.996C57.6511 203.995 56.8349 203.995 56.0187 203.995C55.9799 203.995 55.941 203.995 55.9021 203.995C54.7046 203.995 53.5071 203.995 52.3095 203.995C52.2612 203.995 52.2129 203.995 52.1646 203.995C50.8236 203.995 49.4826 203.995 48.1416 203.994C48.1416 201.712 48.1416 199.429 48.1416 197.077C54.9066 197.069 61.6716 197.062 68.6416 197.054C68.6525 193.641 68.6525 193.641 68.6636 190.159Z" fill="#7E1D64"/>
<path d="M6.82006 6.92041C9.07068 6.92041 11.3213 6.92041 13.6401 6.92041C13.6401 9.1768 13.6401 11.4332 13.6401 13.7579C11.3968 13.7579 9.1534 13.7579 6.84206 13.7579C6.84206 20.5198 6.84206 27.2817 6.84206 34.2485C9.08542 34.2485 11.3288 34.2485 13.6401 34.2485C13.6401 36.5049 13.6401 38.7613 13.6401 41.086C15.8907 41.086 18.1414 41.086 20.4602 41.086C20.4602 45.5988 20.4602 50.1116 20.4602 54.7611C18.2096 54.7611 15.9589 54.7611 13.6401 54.7611C13.6401 50.2556 13.6401 45.7501 13.6401 41.1081C11.3895 41.1081 9.13888 41.1081 6.82006 41.1081C6.82006 38.8517 6.82006 36.5953 6.82006 34.2706C4.56944 34.2706 2.31882 34.2706 0 34.2706C0 27.5014 0 20.7322 0 13.7579C2.25062 13.7579 4.50124 13.7579 6.82006 13.7579C6.82006 11.5016 6.82006 9.24517 6.82006 6.92041Z" fill="#7F1E65"/>
<path d="M40.9203 142.319C50.0552 142.319 59.1901 142.319 68.6018 142.319C68.6018 146.82 68.6018 151.321 68.6018 155.959C66.318 155.959 64.0343 155.959 61.6814 155.959C61.6814 158.209 61.6814 160.46 61.6814 162.779C57.114 162.779 52.5465 162.779 47.8407 162.779C47.8407 162.772 47.8407 162.764 47.8407 162.757C52.4008 162.757 56.9608 162.757 61.6591 162.757C61.6591 160.513 61.6591 158.27 61.6591 155.959C57.099 155.959 52.539 155.959 47.8407 155.959C47.8407 153.708 47.8407 151.457 47.8407 149.139C45.557 149.139 43.2733 149.139 40.9203 149.139C40.9203 146.888 40.9203 144.637 40.9203 142.319Z" fill="#FEAACE"/>
<path d="M13.8407 0C25.1226 0 36.4046 0 48.0284 0C48.0284 2.28372 48.0284 4.56743 48.0284 6.92035C52.5339 6.92035 57.0394 6.92035 61.6814 6.92035C61.6814 9.20407 61.6814 11.4878 61.6814 13.8407C57.1686 13.8407 52.6559 13.8407 48.0063 13.8407C48.0063 11.557 48.0063 9.27327 48.0063 6.92035C36.7317 6.92035 25.457 6.92035 13.8407 6.92035C13.8407 4.63664 13.8407 2.35292 13.8407 0Z" fill="#7F1E65"/>
<path d="M136.903 13.8408C139.137 13.8408 141.371 13.8408 143.673 13.8408C143.673 27.3708 143.673 40.9008 143.673 54.8408C145.907 54.8408 148.141 54.8408 150.442 54.8408C150.442 57.0983 150.442 59.3557 150.442 61.6815C148.208 61.6815 145.974 61.6815 143.673 61.6815C143.673 59.4314 143.673 57.1812 143.673 54.8629C141.438 54.8629 139.204 54.8629 136.903 54.8629C136.903 41.3256 136.903 27.7883 136.903 13.8408Z" fill="#7F1E65"/>
<path d="M95.9823 0C107.241 0 118.501 0 130.101 0C130.101 2.28372 130.101 4.56743 130.101 6.92035C132.345 6.92035 134.59 6.92035 136.903 6.92035C136.903 9.20407 136.903 11.4878 136.903 13.8407C134.651 13.8407 132.399 13.8407 130.079 13.8407C130.079 11.557 130.079 9.27327 130.079 6.92035C118.827 6.92035 107.575 6.92035 95.9823 6.92035C95.9823 4.63664 95.9823 2.35292 95.9823 0Z" fill="#7F1E65"/>
<path d="M136.903 94.177C139.087 94.177 141.271 94.177 143.522 94.177C143.522 107.78 143.522 121.383 143.522 135.398C141.338 135.398 139.153 135.398 136.903 135.398C136.903 121.795 136.903 108.192 136.903 94.177Z" fill="#7F1E65"/>
<path d="M20.4602 94.177C22.8432 94.177 25.2262 94.177 27.6814 94.177C27.6814 107.78 27.6814 121.383 27.6814 135.398C25.2984 135.398 22.9154 135.398 20.4602 135.398C20.4602 121.795 20.4602 108.192 20.4602 94.177Z" fill="#7F1E65"/>
<path d="M123.062 155.858C125.342 155.858 127.622 155.858 129.971 155.858C129.971 158.145 129.971 160.431 129.971 162.786C132.259 162.786 134.546 162.786 136.903 162.786C136.903 167.351 136.903 171.916 136.903 176.619C132.335 176.619 127.768 176.619 123.062 176.619C123.062 169.768 123.062 162.917 123.062 155.858Z" fill="white"/>
<path d="M34.3116 155.858C36.4925 155.858 38.6734 155.858 40.9203 155.858C40.9203 162.71 40.9203 169.561 40.9203 176.619C36.5515 176.619 32.1826 176.619 27.6814 176.619C27.6814 172.054 27.6814 167.49 27.6814 162.786C29.8694 162.786 32.0573 162.786 34.3116 162.786C34.3116 160.5 34.3116 158.214 34.3116 155.858Z" fill="white"/>
<path d="M109.377 101.097C113.849 101.097 118.321 101.097 122.928 101.097C122.928 103.377 122.928 105.657 122.928 108.007C125.157 108.007 127.385 108.007 129.681 108.007C129.681 110.294 129.681 112.581 129.681 114.938C127.446 114.938 125.21 114.938 122.906 114.938C122.906 112.658 122.906 110.378 122.906 108.029C118.441 108.029 113.977 108.029 109.377 108.029C109.377 110.309 109.377 112.589 109.377 114.938C107.141 114.938 104.905 114.938 102.602 114.938C102.602 112.651 102.602 110.363 102.602 108.007C104.838 108.007 107.073 108.007 109.377 108.007C109.377 105.727 109.377 103.447 109.377 101.097Z" fill="black"/>
<path d="M41.1294 101.097C45.6509 101.097 50.1723 101.097 54.8307 101.097C54.8307 103.377 54.8307 105.657 54.8307 108.007C57.0915 108.007 59.3522 108.007 61.6814 108.007C61.6814 110.294 61.6814 112.581 61.6814 114.938C59.4207 114.938 57.16 114.938 54.8307 114.938C54.8307 112.658 54.8307 110.378 54.8307 108.029C50.3166 108.029 45.8025 108.029 41.1515 108.029C41.1515 110.309 41.1515 112.589 41.1515 114.938C38.8908 114.938 36.6301 114.938 34.3009 114.938C34.3009 112.651 34.3009 110.363 34.3009 108.007C36.5543 108.007 38.8077 108.007 41.1294 108.007C41.1294 105.727 41.1294 103.447 41.1294 101.097Z" fill="black"/>
<path d="M95.9823 197.08C102.734 197.08 109.486 197.08 116.442 197.08C116.442 199.363 116.442 201.647 116.442 204C109.691 204 102.939 204 95.9823 204C95.9823 201.716 95.9823 199.433 95.9823 197.08Z" fill="#7F1D64"/>
<path d="M89.0619 54.761C95.7145 54.761 102.367 54.761 109.221 54.761C109.221 57.0447 109.221 59.3284 109.221 61.6813C102.569 61.6813 95.9161 61.6813 89.0619 61.6813C89.0619 59.3976 89.0619 57.1139 89.0619 54.761Z" fill="#7F1E65"/>
<path d="M75.2212 114.938C79.7887 114.938 84.3561 114.938 89.0619 114.938C89.0619 117.122 89.0619 119.307 89.0619 121.557C84.4945 121.557 79.9271 121.557 75.2212 121.557C75.2212 119.373 75.2212 117.189 75.2212 114.938Z" fill="#FFC664"/>
<path d="M6.92035 61.6814C11.3885 61.6814 15.8566 61.6814 20.4602 61.6814C20.4602 63.9651 20.4602 66.2488 20.4602 68.6017C15.992 68.6017 11.5239 68.6017 6.92035 68.6017C6.92035 66.318 6.92035 64.0343 6.92035 61.6814Z" fill="#7E1D64"/>
<path d="M129.681 87.5576C132.064 87.5576 134.447 87.5576 136.903 87.5576C136.903 89.742 136.903 91.9265 136.903 94.1771C134.52 94.1771 132.137 94.1771 129.681 94.1771C129.681 91.9927 129.681 89.8082 129.681 87.5576Z" fill="#7F1E65"/>
<path d="M109.221 48.1416C111.604 48.1416 113.987 48.1416 116.442 48.1416C116.442 50.326 116.442 52.5105 116.442 54.7611C114.059 54.7611 111.676 54.7611 109.221 54.7611C109.221 52.5766 109.221 50.3922 109.221 48.1416Z" fill="#7F1E65"/>
<path d="M82.1416 48.1416C84.4253 48.1416 86.709 48.1416 89.0619 48.1416C89.0619 50.326 89.0619 52.5105 89.0619 54.7611C86.7782 54.7611 84.4945 54.7611 82.1416 54.7611C82.1416 52.5766 82.1416 50.3922 82.1416 48.1416Z" fill="#7F1E65"/>
<path d="M95.9823 149.239C98.1667 149.239 100.351 149.239 102.602 149.239C102.602 151.423 102.602 153.608 102.602 155.858C100.417 155.858 98.2329 155.858 95.9823 155.858C95.9823 153.674 95.9823 151.49 95.9823 149.239Z" fill="#7F1E65"/>
<path d="M61.6814 149.239C63.9651 149.239 66.2488 149.239 68.6018 149.239C68.6018 151.423 68.6018 153.608 68.6018 155.858C66.318 155.858 64.0343 155.858 61.6814 155.858C61.6814 153.674 61.6814 151.49 61.6814 149.239Z" fill="#7F1E65"/>
<path d="M136.903 128.478C139.087 128.478 141.271 128.478 143.522 128.478C143.522 130.761 143.522 133.045 143.522 135.398C141.338 135.398 139.153 135.398 136.903 135.398C136.903 133.114 136.903 130.831 136.903 128.478Z" fill="#FEAACE"/>
<path d="M20.4602 128.478C22.8432 128.478 25.2262 128.478 27.6814 128.478C27.6814 130.761 27.6814 133.045 27.6814 135.398C25.2984 135.398 22.9154 135.398 20.4602 135.398C20.4602 133.114 20.4602 130.831 20.4602 128.478Z" fill="#FEAACE"/>
<path d="M27.6814 87.5576C29.8658 87.5576 32.0502 87.5576 34.3009 87.5576C34.3009 89.742 34.3009 91.9265 34.3009 94.1771C32.1164 94.1771 29.932 94.1771 27.6814 94.1771C27.6814 91.9927 27.6814 89.8082 27.6814 87.5576Z" fill="#7F1E65"/>
<path d="M20.4602 54.761C22.8432 54.761 25.2262 54.761 27.6814 54.761C27.6814 57.0447 27.6814 59.3284 27.6814 61.6813C25.2984 61.6813 22.9154 61.6813 20.4602 61.6813C20.4602 59.3976 20.4602 57.1139 20.4602 54.761Z" fill="#7F1E65"/>
<path d="M116.442 41.2212C118.627 41.2212 120.811 41.2212 123.062 41.2212C123.062 43.5049 123.062 45.7886 123.062 48.1415C120.877 48.1415 118.693 48.1415 116.442 48.1415C116.442 45.8578 116.442 43.5741 116.442 41.2212Z" fill="#7F1E65"/>
<path d="M123.062 80.6372C125.246 80.6372 127.431 80.6372 129.681 80.6372C129.681 82.9209 129.681 85.2046 129.681 87.5576C127.497 87.5576 125.313 87.5576 123.062 87.5576C123.062 85.2738 123.062 82.9901 123.062 80.6372Z" fill="#7F1E65"/>
<path d="M34.3009 80.6372C36.4853 80.6372 38.6697 80.6372 40.9203 80.6372C40.9203 82.9209 40.9203 85.2046 40.9203 87.5576C38.7359 87.5576 36.5515 87.5576 34.3009 87.5576C34.3009 85.2738 34.3009 82.9901 34.3009 80.6372Z" fill="#7F1E65"/>
<path d="M34.3009 54.761C36.4853 54.761 38.6697 54.761 40.9203 54.761C40.9203 57.0447 40.9203 59.3284 40.9203 61.6813C38.7359 61.6813 36.5515 61.6813 34.3009 61.6813C34.3009 59.3976 34.3009 57.1139 34.3009 54.761Z" fill="#FFC664"/>
<path d="M122.864 73.7168C122.871 73.7168 122.878 73.7168 122.886 73.7168C122.886 75.9626 122.886 78.2083 122.886 80.5222C125.128 80.5222 127.371 80.5222 129.681 80.5222C129.681 80.5294 129.681 80.5367 129.681 80.5442C127.439 80.5442 125.196 80.5442 122.886 80.5442C122.886 82.79 122.886 85.0357 122.886 87.3496C122.879 87.3496 122.871 87.3496 122.864 87.3496C122.864 85.1038 122.864 82.858 122.864 80.5442C95.8951 80.5442 68.9264 80.5442 41.1405 80.5442C41.1405 82.79 41.1405 85.0357 41.1405 87.3496C41.1332 87.3496 41.126 87.3496 41.1185 87.3496C41.1185 85.1038 41.1185 82.858 41.1185 80.5442C38.8759 80.5442 36.6334 80.5442 34.3229 80.5442C34.3229 85.043 34.3229 89.5418 34.3229 94.177C34.3156 94.177 34.3084 94.177 34.3009 94.177C34.3009 89.6709 34.3009 85.1648 34.3009 80.5222C63.5266 80.5222 92.7524 80.5222 122.864 80.5222C122.864 78.2764 122.864 76.0306 122.864 73.7168Z" fill="#C896B8"/>
<path d="M122.906 101.097C122.913 101.097 122.92 101.097 122.928 101.097C122.928 103.377 122.928 105.657 122.928 108.007C125.157 108.007 127.385 108.007 129.681 108.007C129.681 108.014 129.681 108.021 129.681 108.029C127.453 108.029 125.224 108.029 122.928 108.029C122.928 110.309 122.928 112.589 122.928 114.938C122.921 114.938 122.913 114.938 122.906 114.938C122.906 112.658 122.906 110.378 122.906 108.029C116.213 108.029 109.52 108.029 102.624 108.029C102.624 110.309 102.624 112.589 102.624 114.938C102.616 114.938 102.609 114.938 102.602 114.938C102.602 112.651 102.602 110.363 102.602 108.007C109.302 108.007 116.003 108.007 122.906 108.007C122.906 105.727 122.906 103.447 122.906 101.097Z" fill="#707070"/>
<path d="M41.1294 101.097C41.1367 101.097 41.144 101.097 41.1515 101.097C41.1515 103.377 41.1515 105.657 41.1515 108.007C47.9264 108.007 54.7012 108.007 61.6814 108.007C61.6814 110.294 61.6814 112.581 61.6814 114.938C61.6741 114.938 61.6668 114.938 61.6593 114.938C61.6593 112.658 61.6593 110.378 61.6593 108.029C54.8917 108.029 48.1242 108.029 41.1515 108.029C41.1515 110.309 41.1515 112.589 41.1515 114.938C41.1442 114.938 41.1369 114.938 41.1294 114.938C41.1294 112.658 41.1294 110.378 41.1294 108.029C38.876 108.029 36.6226 108.029 34.3009 108.029C34.3009 108.022 34.3009 108.014 34.3009 108.007C36.5543 108.007 38.8077 108.007 41.1294 108.007C41.1294 105.727 41.1294 103.447 41.1294 101.097Z" fill="#7B7B7B"/>
<path d="M123.104 101.097C123.111 101.097 123.118 101.097 123.126 101.097C123.126 103.377 123.126 105.657 123.126 108.007C125.289 108.007 127.452 108.007 129.681 108.007C129.681 108.014 129.681 108.021 129.681 108.029C127.518 108.029 125.355 108.029 123.126 108.029C123.126 110.309 123.126 112.589 123.126 114.938C123.119 114.938 123.112 114.938 123.104 114.938C123.104 112.658 123.104 110.378 123.104 108.029C123.09 108.022 123.076 108.014 123.062 108.007C123.076 108.007 123.09 108.007 123.104 108.007C123.104 105.727 123.104 103.447 123.104 101.097Z" fill="#808080"/>
</svg>
