<svg width="165" height="204" viewBox="0 0 165 204" fill="none" xmlns="http://www.w3.org/2000/svg">
<path d="M13.7138 0C25.0376 0 36.3613 0 48.0282 0C48.0282 2.26277 48.0282 4.52555 48.0282 6.85689C52.5538 6.85689 57.0793 6.85689 61.742 6.85689C61.742 9.11967 61.742 11.3824 61.742 13.7138C64.0048 13.7138 66.2676 13.7138 68.5989 13.7138C68.5989 15.9766 68.5989 18.2393 68.5989 20.5707C73.1146 20.5707 77.6302 20.5707 82.2828 20.5707C82.2828 18.3079 82.2828 16.0451 82.2828 13.7138C84.5455 13.7138 86.8083 13.7138 89.1396 13.7138C89.1396 11.451 89.1396 9.18823 89.1396 6.85689C91.4024 6.85689 93.6652 6.85689 95.9965 6.85689C95.9965 4.59412 95.9965 2.33134 95.9965 0C107.32 0 118.644 0 130.311 0C130.311 2.26277 130.311 4.52555 130.311 6.85689C132.574 6.85689 134.836 6.85689 137.168 6.85689C137.168 9.11967 137.168 11.3824 137.168 13.7138C139.431 13.7138 141.693 13.7138 144.025 13.7138C144.025 27.2904 144.025 40.8671 144.025 54.8551C146.287 54.8551 148.55 54.8551 150.882 54.8551C150.882 57.1179 150.882 59.3807 150.882 61.712C153.144 61.712 155.407 61.712 157.738 61.712C157.738 63.9748 157.738 66.2376 157.738 68.5689C160.001 68.5689 162.264 68.5689 164.595 68.5689C164.595 86.681 164.595 104.793 164.595 123.454C162.333 123.454 160.07 123.454 157.738 123.454C157.738 125.144 157.738 126.833 157.738 128.574C155.476 128.574 153.213 128.574 150.882 128.574C150.882 130.837 150.882 133.1 150.882 135.431C148.619 135.431 146.356 135.431 144.025 135.431C144.025 137.694 144.025 139.957 144.025 142.288C139.499 142.288 134.974 142.288 130.311 142.288C130.311 146.804 130.311 151.319 130.311 155.972C132.574 155.972 134.836 155.972 137.168 155.972C137.168 158.235 137.168 160.497 137.168 162.829C139.431 162.829 141.693 162.829 144.025 162.829C144.025 167.364 144.025 171.9 144.025 176.572C141.762 176.572 139.499 176.572 137.168 176.572C137.168 178.835 137.168 181.098 137.168 183.429C132.642 183.429 128.117 183.429 123.454 183.429C123.454 187.955 123.454 192.48 123.454 197.143C121.191 197.143 118.928 197.143 116.597 197.143C116.597 199.406 116.597 201.669 116.597 204C109.799 204 103.001 204 95.9965 204C95.9965 201.737 95.9965 199.474 95.9965 197.143C89.2181 197.143 82.4397 197.143 75.4558 197.143C75.4558 199.406 75.4558 201.669 75.4558 204C66.3948 204 57.3338 204 47.9983 204C47.9983 201.737 47.9983 199.474 47.9983 197.143C45.7355 197.143 43.4727 197.143 41.1414 197.143C41.1414 192.618 41.1414 188.092 41.1414 183.429C36.6159 183.429 32.0903 183.429 27.4276 183.429C27.4276 181.167 27.4276 178.904 27.4276 176.572C25.1649 176.572 22.9021 176.572 20.5707 176.572C20.5707 172.037 20.5707 167.502 20.5707 162.829C22.8335 162.829 25.0963 162.829 27.4276 162.829C27.4276 160.566 27.4276 158.303 27.4276 155.972C29.6904 155.972 31.9532 155.972 34.2845 155.972C34.2845 151.456 34.2845 146.94 34.2845 142.288C29.759 142.288 25.2334 142.288 20.5707 142.288C20.5707 140.025 20.5707 137.762 20.5707 135.431C18.308 135.431 16.0452 135.431 13.7138 135.431C13.7138 133.168 13.7138 130.906 13.7138 128.574C11.4511 128.574 9.18829 128.574 6.85695 128.574C6.85695 126.885 6.85695 125.195 6.85695 123.454C4.59418 123.454 2.3314 123.454 6.10352e-05 123.454C6.10352e-05 105.342 6.10352e-05 87.2298 6.10352e-05 68.5689C2.26284 68.5689 4.52561 68.5689 6.85695 68.5689C6.85695 66.3061 6.85695 64.0434 6.85695 61.712C11.3825 61.712 15.908 61.712 20.5707 61.712C20.5707 59.4591 20.5707 57.2062 20.5707 54.8851C18.308 54.8851 16.0452 54.8851 13.7138 54.8851C13.7138 50.3595 13.7138 45.834 13.7138 41.1713C11.4511 41.1713 9.18829 41.1713 6.85695 41.1713C6.85695 38.9085 6.85695 36.6457 6.85695 34.3144C4.59418 34.3144 2.3314 34.3144 6.10352e-05 34.3144C6.10352e-05 27.5162 6.10352e-05 20.718 6.10352e-05 13.7138C2.26284 13.7138 4.52561 13.7138 6.85695 13.7138C6.85695 11.451 6.85695 9.18823 6.85695 6.85689C9.11973 6.85689 11.3825 6.85689 13.7138 6.85689C13.7138 4.59412 13.7138 2.33134 13.7138 0Z" fill="#FEAACE"/>
<path d="M0 13.7139C2.26277 13.7139 4.52555 13.7139 6.85689 13.7139C6.85689 20.5022 6.85689 27.2905 6.85689 34.2845C9.11966 34.2845 11.3824 34.2845 13.7138 34.2845C13.7138 36.5473 13.7138 38.8101 13.7138 41.1414C15.9766 41.1414 18.2393 41.1414 20.5707 41.1414C20.5707 45.667 20.5707 50.1925 20.5707 54.8552C22.8334 54.8552 25.0962 54.8552 27.4276 54.8552C27.4276 57.118 27.4276 59.3808 27.4276 61.7121C25.1747 61.7121 22.9218 61.7121 20.6006 61.7121C20.6006 66.2376 20.6006 70.7632 20.6006 75.4259C25.1163 75.4259 29.6319 75.4259 34.2845 75.4259C34.2845 73.1631 34.2845 70.9003 34.2845 68.569C36.5472 68.569 38.81 68.569 41.1413 68.569C41.1413 70.2685 41.1413 71.9681 41.1413 73.7191C68.3045 73.7191 95.4677 73.7191 123.454 73.7191C123.454 75.9819 123.454 78.2447 123.454 80.576C125.707 80.576 127.96 80.576 130.281 80.576C130.281 82.8388 130.281 85.1016 130.281 87.4329C128.018 87.4329 125.755 87.4329 123.424 87.4329C123.424 85.1702 123.424 82.9074 123.424 80.576C96.2707 80.576 69.1175 80.576 41.1413 80.576C41.1413 82.8388 41.1413 85.1016 41.1413 87.4329C38.8786 87.4329 36.6158 87.4329 34.2845 87.4329C34.2845 89.6957 34.2845 91.9585 34.2845 94.2898C32.0217 94.2898 29.7589 94.2898 27.4276 94.2898C27.4276 105.604 27.4276 116.918 27.4276 128.574C29.6903 128.574 31.9531 128.574 34.2845 128.574C34.2845 130.837 34.2845 133.1 34.2845 135.431C65.9633 135.431 97.6421 135.431 130.281 135.431C130.281 133.168 130.281 130.906 130.281 128.574C132.544 128.574 134.806 128.574 137.138 128.574C137.138 130.837 137.138 133.1 137.138 135.431C139.41 135.431 141.683 135.431 144.025 135.431C144.025 137.694 144.025 139.957 144.025 142.288C139.499 142.288 134.974 142.288 130.311 142.288C130.311 146.804 130.311 151.319 130.311 155.972C132.574 155.972 134.836 155.972 137.168 155.972C137.168 158.235 137.168 160.497 137.168 162.829C139.431 162.829 141.693 162.829 144.025 162.829C144.025 167.364 144.025 171.9 144.025 176.572C141.762 176.572 139.499 176.572 137.168 176.572C137.168 178.835 137.168 181.098 137.168 183.429C132.642 183.429 128.117 183.429 123.454 183.429C123.454 187.955 123.454 192.48 123.454 197.143C121.191 197.143 118.928 197.143 116.597 197.143C116.597 199.406 116.597 201.669 116.597 204C109.799 204 103.001 204 95.9965 204C95.9965 201.737 95.9965 199.475 95.9965 197.143C89.218 197.143 82.4396 197.143 75.4557 197.143C75.4557 199.406 75.4557 201.669 75.4557 204C66.3948 204 57.3338 204 47.9982 204C47.9982 201.737 47.9982 199.475 47.9982 197.143C45.7355 197.143 43.4727 197.143 41.1413 197.143C41.1413 192.618 41.1413 188.092 41.1413 183.429C36.6158 183.429 32.0902 183.429 27.4276 183.429C27.4276 181.167 27.4276 178.904 27.4276 176.572C25.1648 176.572 22.902 176.572 20.5707 176.572C20.5707 172.037 20.5707 167.502 20.5707 162.829C22.8334 162.829 25.0962 162.829 27.4276 162.829C27.4276 160.566 27.4276 158.303 27.4276 155.972C29.6903 155.972 31.9531 155.972 34.2845 155.972C34.2845 151.456 34.2845 146.941 34.2845 142.288C29.7589 142.288 25.2334 142.288 20.5707 142.288C20.5707 140.025 20.5707 137.762 20.5707 135.431C18.3079 135.431 16.0451 135.431 13.7138 135.431C13.7138 133.168 13.7138 130.906 13.7138 128.574C11.451 128.574 9.18823 128.574 6.85689 128.574C6.85689 126.885 6.85689 125.195 6.85689 123.454C4.59412 123.454 2.33134 123.454 0 123.454C0 105.342 0 87.2299 0 68.569C2.26277 68.569 4.52555 68.569 6.85689 68.569C6.85689 66.3062 6.85689 64.0434 6.85689 61.7121C11.3824 61.7121 15.908 61.7121 20.5707 61.7121C20.5707 59.4592 20.5707 57.2063 20.5707 54.8852C18.3079 54.8852 16.0451 54.8852 13.7138 54.8852C13.7138 50.3596 13.7138 45.8341 13.7138 41.1714C11.451 41.1714 9.18823 41.1714 6.85689 41.1714C6.85689 38.9086 6.85689 36.6458 6.85689 34.3145C4.59412 34.3145 2.33134 34.3145 0 34.3145C0 27.5163 0 20.7181 0 13.7139Z" fill="#7F1E65"/>
<path d="M41.1413 80.5759C68.2946 80.5759 95.4479 80.5759 123.424 80.5759C123.424 82.8387 123.424 85.1015 123.424 87.4328C125.687 87.4328 127.95 87.4328 130.281 87.4328C130.281 89.6956 130.281 91.9584 130.281 94.2897C132.544 94.2897 134.806 94.2897 137.138 94.2897C137.138 105.604 137.138 116.917 137.138 128.574C134.875 128.574 132.612 128.574 130.281 128.574C130.281 130.837 130.281 133.1 130.281 135.431C98.6021 135.431 66.9232 135.431 34.2844 135.431C34.2844 133.168 34.2844 130.906 34.2844 128.574C32.0217 128.574 29.7589 128.574 27.4276 128.574C27.4276 117.26 27.4276 105.946 27.4276 94.2897C29.6903 94.2897 31.9531 94.2897 34.2844 94.2897C34.2844 92.0269 34.2844 89.7642 34.2844 87.4328C36.5472 87.4328 38.81 87.4328 41.1413 87.4328C41.1413 85.17 41.1413 82.9073 41.1413 80.5759Z" fill="#FEFEFE"/>
<path d="M41.1414 142.288C50.1925 142.288 59.2436 142.288 68.569 142.288C68.569 144.551 68.569 146.814 68.569 149.145C70.8317 149.145 73.0945 149.145 75.4258 149.145C75.4258 146.882 75.4258 144.619 75.4258 142.288C79.9514 142.288 84.4769 142.288 89.1396 142.288C89.1396 144.551 89.1396 146.814 89.1396 149.145C91.4024 149.145 93.6652 149.145 95.9965 149.145C95.9965 151.408 95.9965 153.671 95.9965 156.002C98.2593 156.002 100.522 156.002 102.853 156.002C102.853 158.265 102.853 160.527 102.853 162.859C107.379 162.859 111.905 162.859 116.567 162.859C116.567 174.173 116.567 185.486 116.567 197.143C103 197.143 89.4337 197.143 75.4558 197.143C75.4558 199.406 75.4558 201.669 75.4558 204C66.3948 204 57.3338 204 47.9983 204C47.9983 190.423 47.9983 176.847 47.9983 162.859C52.5238 162.859 57.0494 162.859 61.7121 162.859C61.7121 160.596 61.7121 158.333 61.7121 156.002C57.1865 156.002 52.661 156.002 47.9983 156.002C47.9983 153.739 47.9983 151.476 47.9983 149.145C45.7355 149.145 43.4727 149.145 41.1414 149.145C41.1414 146.882 41.1414 144.619 41.1414 142.288Z" fill="#FEFEFE"/>
<path d="M0 13.7139C2.26277 13.7139 4.52555 13.7139 6.85689 13.7139C6.85689 20.5022 6.85689 27.2905 6.85689 34.2845C9.11967 34.2845 11.3824 34.2845 13.7138 34.2845C13.7138 36.5473 13.7138 38.8101 13.7138 41.1414C15.9766 41.1414 18.2393 41.1414 20.5707 41.1414C20.5707 45.667 20.5707 50.1925 20.5707 54.8552C22.8334 54.8552 25.0962 54.8552 27.4276 54.8552C27.4276 57.118 27.4276 59.3808 27.4276 61.7121C25.1747 61.7121 22.9218 61.7121 20.6006 61.7121C20.6006 66.2377 20.6006 70.7632 20.6006 75.4259C25.1163 75.4259 29.632 75.4259 34.2845 75.4259C34.2845 73.1631 34.2845 70.9003 34.2845 68.569C36.5472 68.569 38.81 68.569 41.1413 68.569C41.1413 70.2685 41.1413 71.9681 41.1413 73.7191C68.3045 73.7191 95.4677 73.7191 123.454 73.7191C123.454 75.9819 123.454 78.2447 123.454 80.576C125.707 80.576 127.96 80.576 130.281 80.576C130.281 82.8388 130.281 85.1016 130.281 87.4329C128.018 87.4329 125.755 87.4329 123.424 87.4329C123.424 85.1702 123.424 82.9074 123.424 80.576C96.2708 80.576 69.1175 80.576 41.1413 80.576C41.1413 82.8388 41.1413 85.1016 41.1413 87.4329C38.8786 87.4329 36.6158 87.4329 34.2845 87.4329C34.2845 89.6957 34.2845 91.9585 34.2845 94.2898C29.7589 94.2898 25.2334 94.2898 20.5707 94.2898C20.5707 105.604 20.5707 116.918 20.5707 128.574C16.0451 128.574 11.5196 128.574 6.85689 128.574C6.85689 126.885 6.85689 125.195 6.85689 123.454C4.59412 123.454 2.33134 123.454 0 123.454C0 105.342 0 87.2299 0 68.569C2.26277 68.569 4.52555 68.569 6.85689 68.569C6.85689 66.3062 6.85689 64.0434 6.85689 61.7121C11.3824 61.7121 15.908 61.7121 20.5707 61.7121C20.5707 59.4592 20.5707 57.2063 20.5707 54.8852C18.3079 54.8852 16.0451 54.8852 13.7138 54.8852C13.7138 50.3596 13.7138 45.8341 13.7138 41.1714C11.451 41.1714 9.18823 41.1714 6.85689 41.1714C6.85689 38.9086 6.85689 36.6458 6.85689 34.3145C4.59412 34.3145 2.33134 34.3145 0 34.3145C0 27.5163 0 20.7181 0 13.7139Z" fill="#FEAACE"/>
<path d="M95.9964 0C107.32 0 118.644 0 130.311 0C130.311 2.26277 130.311 4.52555 130.311 6.85689C132.574 6.85689 134.836 6.85689 137.168 6.85689C137.168 9.11967 137.168 11.3824 137.168 13.7138C139.43 13.7138 141.693 13.7138 144.025 13.7138C144.025 27.2904 144.025 40.8671 144.025 54.8551C146.287 54.8551 148.55 54.8551 150.881 54.8551C150.881 57.1179 150.881 59.3807 150.881 61.712C153.144 61.712 155.407 61.712 157.738 61.712C157.738 63.9748 157.738 66.2376 157.738 68.5689C160.001 68.5689 162.264 68.5689 164.595 68.5689C164.595 86.681 164.595 104.793 164.595 123.454C162.332 123.454 160.07 123.454 157.738 123.454C157.738 125.144 157.738 126.833 157.738 128.574C155.476 128.574 153.213 128.574 150.881 128.574C150.881 130.837 150.881 133.1 150.881 135.431C148.619 135.431 146.356 135.431 144.025 135.431C144.025 133.168 144.025 130.906 144.025 128.574C146.277 128.574 148.53 128.574 150.852 128.574C150.852 126.311 150.852 124.049 150.852 121.717C153.114 121.717 155.377 121.717 157.708 121.717C157.708 104.178 157.708 86.6394 157.708 68.5689C155.446 68.5689 153.183 68.5689 150.852 68.5689C150.852 66.3061 150.852 64.0434 150.852 61.712C148.589 61.712 146.326 61.712 143.995 61.712C143.995 59.4492 143.995 57.1865 143.995 54.8551C141.732 54.8551 139.469 54.8551 137.138 54.8551C137.138 41.2785 137.138 27.7018 137.138 13.7138C134.875 13.7138 132.612 13.7138 130.281 13.7138C130.281 11.451 130.281 9.18823 130.281 6.85689C118.967 6.85689 107.653 6.85689 95.9964 6.85689C95.9964 4.59412 95.9964 2.33134 95.9964 0Z" fill="#7F1E65"/>
<path d="M20.6006 41.1414C25.1163 41.1414 29.6319 41.1414 34.2844 41.1414C34.2844 43.4041 34.2844 45.6669 34.2844 47.9982C36.5472 47.9982 38.81 47.9982 41.1413 47.9982C41.1413 45.7355 41.1413 43.4727 41.1413 41.1414C45.6669 41.1414 50.1924 41.1414 54.8551 41.1414C54.8551 45.6669 54.8551 50.1925 54.8551 54.8551C52.5923 54.8551 50.3295 54.8551 47.9982 54.8551C47.9982 57.1179 47.9982 59.3807 47.9982 61.712C50.261 61.712 52.5238 61.712 54.8551 61.712C54.8551 65.6744 54.8551 69.6367 54.8551 73.7191C50.3295 73.7191 45.804 73.7191 41.1413 73.7191C41.1413 72.0195 41.1413 70.32 41.1413 68.5689C38.8785 68.5689 36.6158 68.5689 34.2844 68.5689C34.2844 70.8317 34.2844 73.0945 34.2844 75.4258C29.7688 75.4258 25.2531 75.4258 20.6006 75.4258C20.6006 70.9003 20.6006 66.3747 20.6006 61.712C22.8535 61.712 25.1064 61.712 27.4275 61.712C27.4275 59.4493 27.4275 57.1865 27.4275 54.8551C25.1746 54.8551 22.9217 54.8551 20.6006 54.8551C20.6006 50.3296 20.6006 45.804 20.6006 41.1414Z" fill="#FEFEFE"/>
<path d="M13.7138 0C25.0375 0 36.3613 0 48.0282 0C48.0282 2.26277 48.0282 4.52555 48.0282 6.85689C52.5537 6.85689 57.0793 6.85689 61.742 6.85689C61.742 9.11966 61.742 11.3824 61.742 13.7138C64.0047 13.7138 66.2675 13.7138 68.5988 13.7138C68.5988 15.9766 68.5988 18.2393 68.5988 20.5707C73.1145 20.5707 77.6302 20.5707 82.2827 20.5707C82.2827 29.6218 82.2827 38.6729 82.2827 47.9982C80.0199 47.9982 77.7571 47.9982 75.4258 47.9982C75.4258 41.2099 75.4258 34.4216 75.4258 27.4276C73.163 27.4276 70.9002 27.4276 68.5689 27.4276C68.5689 25.1648 68.5689 22.902 68.5689 20.5707C66.3061 20.5707 64.0434 20.5707 61.712 20.5707C61.712 18.3079 61.712 16.0451 61.712 13.7138C57.1865 13.7138 52.6609 13.7138 47.9982 13.7138C47.9982 11.451 47.9982 9.18823 47.9982 6.85689C36.6844 6.85689 25.3705 6.85689 13.7138 6.85689C13.7138 4.59412 13.7138 2.33134 13.7138 0Z" fill="#7F1E65"/>
<path d="M41.1414 73.719C68.3046 73.719 95.4677 73.719 123.454 73.719C123.454 75.9818 123.454 78.2445 123.454 80.5759C125.707 80.5759 127.96 80.5759 130.281 80.5759C130.281 82.8387 130.281 85.1014 130.281 87.4328C128.018 87.4328 125.755 87.4328 123.424 87.4328C123.424 85.17 123.424 82.9072 123.424 80.5759C96.2708 80.5759 69.1175 80.5759 41.1414 80.5759C41.1414 78.3131 41.1414 76.0503 41.1414 73.719Z" fill="#7F1E65"/>
<path d="M0 68.5688C2.26277 68.5688 4.52555 68.5688 6.85689 68.5688C6.85689 86.1078 6.85689 103.647 6.85689 121.717C9.11967 121.717 11.3824 121.717 13.7138 121.717C13.7138 123.98 13.7138 126.243 13.7138 128.574C11.451 128.574 9.18823 128.574 6.85689 128.574C6.85689 126.884 6.85689 125.195 6.85689 123.454C4.59412 123.454 2.33134 123.454 0 123.454C0 105.342 0 87.2298 0 68.5688Z" fill="#7E1E64"/>
<path d="M68.5689 190.286C77.62 190.286 86.6711 190.286 95.9964 190.286C95.9964 192.549 95.9964 194.812 95.9964 197.143C89.218 197.143 82.4396 197.143 75.4557 197.143C75.4557 199.406 75.4557 201.669 75.4557 204C66.3947 204 57.3338 204 47.9982 204C47.9982 201.737 47.9982 199.474 47.9982 197.143C54.7865 197.143 61.5748 197.143 68.5689 197.143C68.5689 194.88 68.5689 192.617 68.5689 190.286Z" fill="#7F1E65"/>
<path d="M0 13.7139C2.26277 13.7139 4.52555 13.7139 6.85689 13.7139C6.85689 20.5022 6.85689 27.2905 6.85689 34.2845C9.11967 34.2845 11.3824 34.2845 13.7138 34.2845C13.7138 36.5473 13.7138 38.8101 13.7138 41.1414C15.9766 41.1414 18.2393 41.1414 20.5707 41.1414C20.5707 45.667 20.5707 50.1925 20.5707 54.8552C22.8334 54.8552 25.0962 54.8552 27.4276 54.8552C27.4276 57.118 27.4276 59.3808 27.4276 61.7121C25.1648 61.7121 22.902 61.7121 20.5707 61.7121C20.5707 59.4592 20.5707 57.2063 20.5707 54.8852C18.3079 54.8852 16.0451 54.8852 13.7138 54.8852C13.7138 50.3596 13.7138 45.8341 13.7138 41.1714C11.451 41.1714 9.18823 41.1714 6.85689 41.1714C6.85689 38.9086 6.85689 36.6458 6.85689 34.3145C4.59412 34.3145 2.33134 34.3145 0 34.3145C0 27.5163 0 20.7181 0 13.7139Z" fill="#7F1E65"/>
<path d="M41.1414 142.288C50.1925 142.288 59.2436 142.288 68.569 142.288C68.569 146.814 68.569 151.339 68.569 156.002C61.7806 156.002 54.9923 156.002 47.9983 156.002C47.9983 153.739 47.9983 151.476 47.9983 149.145C45.7355 149.145 43.4727 149.145 41.1414 149.145C41.1414 146.882 41.1414 144.619 41.1414 142.288Z" fill="#FEAACE"/>
<path d="M20.5707 94.2898C22.8334 94.2898 25.0962 94.2898 27.4276 94.2898C27.4276 107.866 27.4276 121.443 27.4276 135.431C22.902 135.431 18.3765 135.431 13.7138 135.431C13.7138 133.168 13.7138 130.906 13.7138 128.574C15.9765 128.574 18.2393 128.574 20.5707 128.574C20.5707 117.26 20.5707 105.947 20.5707 94.2898Z" fill="#7F1E65"/>
<path d="M96.0264 142.288C105.068 142.288 114.109 142.288 123.424 142.288C123.424 144.551 123.424 146.814 123.424 149.145C121.161 149.145 118.898 149.145 116.567 149.145C116.567 151.408 116.567 153.671 116.567 156.002C112.051 156.002 107.536 156.002 102.883 156.002C102.883 153.739 102.883 151.476 102.883 149.145C100.621 149.145 98.3577 149.145 96.0264 149.145C96.0264 146.882 96.0264 144.619 96.0264 142.288Z" fill="#FEAACE"/>
<path d="M82.3126 47.9983C84.5754 47.9983 86.8382 47.9983 89.1695 47.9983C89.1695 50.2611 89.1695 52.5238 89.1695 54.8552C95.948 54.8552 102.726 54.8552 109.71 54.8552C109.71 52.5924 109.71 50.3296 109.71 47.9983C111.973 47.9983 114.236 47.9983 116.567 47.9983C116.567 50.2611 116.567 52.5238 116.567 54.8552C114.314 54.8552 112.061 54.8552 109.74 54.8552C109.74 57.118 109.74 59.3807 109.74 61.7121C102.942 61.7121 96.1438 61.7121 89.1396 61.7121C89.1396 59.4493 89.1396 57.1865 89.1396 54.8552C86.8867 54.8552 84.6338 54.8552 82.3126 54.8552C82.3126 52.5924 82.3126 50.3296 82.3126 47.9983Z" fill="#7F1E65"/>
<path d="M123.424 156.002C125.687 156.002 127.95 156.002 130.281 156.002C130.281 158.264 130.281 160.527 130.281 162.859C132.544 162.859 134.806 162.859 137.138 162.859C137.138 167.384 137.138 171.91 137.138 176.572C132.612 176.572 128.087 176.572 123.424 176.572C123.424 169.784 123.424 162.996 123.424 156.002Z" fill="#FEFEFE"/>
<path d="M34.2844 156.002C36.5472 156.002 38.81 156.002 41.1413 156.002C41.1413 162.79 41.1413 169.578 41.1413 176.572C36.6158 176.572 32.0902 176.572 27.4276 176.572C27.4276 172.047 27.4276 167.521 27.4276 162.859C29.6903 162.859 31.9531 162.859 34.2844 162.859C34.2844 160.596 34.2844 158.333 34.2844 156.002Z" fill="#FEFEFE"/>
<path d="M137.168 94.2898C139.421 94.2898 141.674 94.2898 143.995 94.2898C143.995 105.604 143.995 116.918 143.995 128.574C141.742 128.574 139.489 128.574 137.168 128.574C137.168 117.26 137.168 105.947 137.168 94.2898Z" fill="#7F1E65"/>
<path d="M75.4258 114.86C79.9514 114.86 84.4769 114.86 89.1396 114.86C89.1396 117.123 89.1396 119.386 89.1396 121.717C84.614 121.717 80.0885 121.717 75.4258 121.717C75.4258 119.454 75.4258 117.192 75.4258 114.86Z" fill="#FFC664"/>
<path d="M109.71 108.003C114.236 108.003 118.761 108.003 123.424 108.003C123.424 110.266 123.424 112.529 123.424 114.86C118.899 114.86 114.373 114.86 109.71 114.86C109.71 112.598 109.71 110.335 109.71 108.003Z" fill="black"/>
<path d="M41.1414 108.003C45.6669 108.003 50.1925 108.003 54.8552 108.003C54.8552 110.266 54.8552 112.529 54.8552 114.86C50.3296 114.86 45.8041 114.86 41.1414 114.86C41.1414 112.598 41.1414 110.335 41.1414 108.003Z" fill="black"/>
<path d="M6.85687 61.7119C11.3824 61.7119 15.908 61.7119 20.5707 61.7119C20.5707 63.9747 20.5707 66.2375 20.5707 68.5688C16.0451 68.5688 11.5196 68.5688 6.85687 68.5688C6.85687 66.306 6.85687 64.0433 6.85687 61.7119Z" fill="#7E1D64"/>
<path d="M61.712 149.145C63.9747 149.145 66.2375 149.145 68.5689 149.145C68.5689 151.408 68.5689 153.67 68.5689 156.002C66.3061 156.002 64.0433 156.002 61.712 156.002C61.712 153.739 61.712 151.476 61.712 149.145Z" fill="#7F1E65"/>
<path d="M13.7138 128.574C15.9765 128.574 18.2393 128.574 20.5707 128.574C20.5707 130.837 20.5707 133.1 20.5707 135.431C18.3079 135.431 16.0451 135.431 13.7138 135.431C13.7138 133.168 13.7138 130.906 13.7138 128.574Z" fill="#7E1D64"/>
<path d="M27.4276 87.4329C29.6903 87.4329 31.9531 87.4329 34.2844 87.4329C34.2844 89.6956 34.2844 91.9584 34.2844 94.2898C32.0217 94.2898 29.7589 94.2898 27.4276 94.2898C27.4276 92.027 27.4276 89.7642 27.4276 87.4329Z" fill="#7F1E65"/>
<path d="M34.2844 80.5759C36.5472 80.5759 38.81 80.5759 41.1413 80.5759C41.1413 82.8387 41.1413 85.1015 41.1413 87.4328C38.8785 87.4328 36.6158 87.4328 34.2844 87.4328C34.2844 85.17 34.2844 82.9073 34.2844 80.5759Z" fill="#7F1E65"/>
<path d="M34.2844 54.8552C36.5472 54.8552 38.81 54.8552 41.1413 54.8552C41.1413 57.118 41.1413 59.3808 41.1413 61.7121C38.8785 61.7121 36.6158 61.7121 34.2844 61.7121C34.2844 59.4493 34.2844 57.1866 34.2844 54.8552Z" fill="#FFC664"/>
<path d="M82.2827 13.7139C84.5455 13.7139 86.8083 13.7139 89.1396 13.7139C89.1396 15.9766 89.1396 18.2394 89.1396 20.5708C86.8768 20.5708 84.6141 20.5708 82.2827 20.5708C82.2827 18.308 82.2827 16.0452 82.2827 13.7139Z" fill="#7E1D64"/>
<path d="M89.1396 6.85693C91.4024 6.85693 93.6651 6.85693 95.9965 6.85693C95.9965 9.11971 95.9965 11.3825 95.9965 13.7138C93.7337 13.7138 91.4709 13.7138 89.1396 13.7138C89.1396 11.4511 89.1396 9.18828 89.1396 6.85693Z" fill="#7E1D64"/>
<path d="M6.85687 6.85693C9.11965 6.85693 11.3824 6.85693 13.7138 6.85693C13.7138 9.11971 13.7138 11.3825 13.7138 13.7138C11.451 13.7138 9.18822 13.7138 6.85687 13.7138C6.85687 11.4511 6.85687 9.18828 6.85687 6.85693Z" fill="#7E1D64"/>
<path d="M20.6006 128.574C22.8535 128.574 25.1064 128.574 27.4275 128.574C27.4275 130.837 27.4275 133.1 27.4275 135.431C25.1746 135.431 22.9217 135.431 20.6006 135.431C20.6006 133.168 20.6006 130.906 20.6006 128.574Z" fill="#FEAACE"/>
<path d="M130.311 87.4329C132.564 87.4329 134.817 87.4329 137.138 87.4329C137.138 89.6956 137.138 91.9584 137.138 94.2898C134.885 94.2898 132.632 94.2898 130.311 94.2898C130.311 92.027 130.311 89.7642 130.311 87.4329Z" fill="#7F1E65"/>
<path d="M116.597 41.1414C118.85 41.1414 121.103 41.1414 123.424 41.1414C123.424 43.4041 123.424 45.6669 123.424 47.9982C121.171 47.9982 118.918 47.9982 116.597 47.9982C116.597 45.7355 116.597 43.4727 116.597 41.1414Z" fill="#7F1E65"/>
</svg>
