<svg width="88" height="80" viewBox="0 0 88 80" fill="none" xmlns="http://www.w3.org/2000/svg">
<rect x="4" y="4" width="80" height="72" fill="#7F1E65"/>
<rect x="4" y="4" width="80" height="72" stroke="#FFABCF" stroke-width="8"/>
<path d="M54.668 42.667L54.668 37.333L49.334 37.333L49.334 42.667L54.668 42.667ZM49.334 37.333L49.334 32L44.001 32L44.001 37.333L49.334 37.333ZM49.334 48L49.334 42.667L44.001 42.667L44.001 48L49.334 48ZM44.001 32L44.001 26.667L38.668 26.667L38.668 32L44.001 32ZM44.001 53.333L44.001 48L38.668 48L38.668 53.333L44.001 53.333ZM38.668 26.667L38.668 21.333L33.334 21.333L33.334 26.667L38.668 26.667ZM38.668 58.667L38.668 53.333L33.334 53.333L33.334 58.667L38.668 58.667Z" fill="#FFF5FE"/>
</svg>
