<svg width="237" height="80" viewBox="0 0 237 80" fill="none" xmlns="http://www.w3.org/2000/svg">
<rect x="4" y="4" width="229" height="72" fill="#FFABCF"/>
<rect x="4" y="4" width="229" height="72" stroke="#7F1E65" stroke-width="8"/>
<path d="M28.5714 40.1429H31.1429V42.7143H28.5714V40.1429ZM31.1429 40.1429H33.7143V42.7143H31.1429V40.1429ZM33.7143 40.1429H36.2857V42.7143H33.7143V40.1429ZM36.2857 40.1429H38.8571V42.7143H36.2857V40.1429ZM31.1429 42.7143H33.7143V45.2857H31.1429V42.7143ZM28.5714 42.7143H31.1429V45.2857H28.5714V42.7143ZM33.7143 42.7143H36.2857V45.2857H33.7143V42.7143ZM36.2857 42.7143H38.8571V45.2857H36.2857V42.7143ZM38.8571 45.2857H41.4286V47.8571H38.8571V45.2857ZM41.4286 42.7143H44V45.2857H41.4286V42.7143ZM38.8571 42.7143H41.4286V45.2857H38.8571V42.7143ZM41.4286 45.2857H44V47.8571H41.4286V45.2857ZM38.8571 47.8571H41.4286V50.4286H38.8571V47.8571ZM41.4286 47.8571H44V50.4286H41.4286V47.8571ZM41.4286 50.4286H44V53H41.4286V50.4286ZM38.8571 50.4286H41.4286V53H38.8571V50.4286ZM28.5714 50.4286H31.1429V53H28.5714V50.4286ZM26 50.4286H28.5714V53H26V50.4286ZM26 47.8571H28.5714V50.4286H26V47.8571ZM28.5714 47.8571H31.1429V50.4286H28.5714V47.8571ZM28.5714 45.2857H31.1429V47.8571H28.5714V45.2857ZM26 45.2857H28.5714V47.8571H26V45.2857ZM26 42.7143H28.5714V45.2857H26V42.7143ZM26 40.1429H28.5714V42.7143H26V40.1429ZM26 37.5714H28.5714V40.1429H26V37.5714ZM28.5714 37.5714H31.1429V40.1429H28.5714V37.5714ZM26 27.2857H28.5714V29.8571H26V27.2857ZM28.5714 27.2857H31.1429V29.8571H28.5714V27.2857ZM31.1429 27.2857H33.7143V29.8571H31.1429V27.2857ZM33.7143 27.2857H36.2857V29.8571H33.7143V27.2857ZM36.2857 27.2857H38.8571V29.8571H36.2857V27.2857ZM38.8571 27.2857H41.4286V29.8571H38.8571V27.2857ZM38.8571 29.8571H41.4286V32.4286H38.8571V29.8571ZM36.2857 29.8571H38.8571V32.4286H36.2857V29.8571ZM33.7143 29.8571H36.2857V32.4286H33.7143V29.8571ZM31.1429 29.8571H33.7143V32.4286H31.1429V29.8571ZM28.5714 29.8571H31.1429V32.4286H28.5714V29.8571ZM26 29.8571H28.5714V32.4286H26V29.8571ZM26 32.4286H28.5714V35H26V32.4286ZM26 35H28.5714V37.5714H26V35ZM28.5714 35H31.1429V37.5714H28.5714V35ZM28.5714 32.4286H31.1429V35H28.5714V32.4286ZM38.8571 32.4286H41.4286V35H38.8571V32.4286ZM41.4286 32.4286H44V35H41.4286V32.4286ZM41.4286 29.8571H44V32.4286H41.4286V29.8571ZM41.4286 35H44V37.5714H41.4286V35ZM38.8571 35H41.4286V37.5714H38.8571V35ZM38.8571 37.5714H41.4286V40.1429H38.8571V37.5714ZM41.4286 37.5714H44V40.1429H41.4286V37.5714ZM38.8571 40.1429H41.4286V42.7143H38.8571V40.1429ZM47.5381 27.2857H50.1096V29.8571H47.5381V27.2857ZM50.1096 27.2857H52.681V29.8571H50.1096V27.2857ZM50.1096 29.8571H52.681V32.4286H50.1096V29.8571ZM50.1096 32.4286H52.681V35H50.1096V32.4286ZM50.1096 35H52.681V37.5714H50.1096V35ZM47.5381 35H50.1096V37.5714H47.5381V35ZM47.5381 32.4286H50.1096V35H47.5381V32.4286ZM47.5381 29.8571H50.1096V32.4286H47.5381V29.8571ZM47.5381 37.5714H50.1096V40.1429H47.5381V37.5714ZM47.5381 40.1429H50.1096V42.7143H47.5381V40.1429ZM47.5381 42.7143H50.1096V45.2857H47.5381V42.7143ZM50.1096 40.1429H52.681V42.7143H50.1096V40.1429ZM50.1096 37.5714H52.681V40.1429H50.1096V37.5714ZM50.1096 42.7143H52.681V45.2857H50.1096V42.7143ZM50.1096 45.2857H52.681V47.8571H50.1096V45.2857ZM47.5381 47.8571H50.1096V50.4286H47.5381V47.8571ZM47.5381 45.2857H50.1096V47.8571H47.5381V45.2857ZM47.5381 50.4286H50.1096V53H47.5381V50.4286ZM50.1096 50.4286H52.681V53H50.1096V50.4286ZM50.1096 47.8571H52.681V50.4286H50.1096V47.8571ZM52.681 50.4286H55.2524V53H52.681V50.4286ZM55.2524 50.4286H57.8238V53H55.2524V50.4286ZM57.8238 50.4286H60.3953V53H57.8238V50.4286ZM57.8238 47.8571H60.3953V50.4286H57.8238V47.8571ZM55.2524 47.8571H57.8238V50.4286H55.2524V47.8571ZM52.681 47.8571H55.2524V50.4286H52.681V47.8571ZM52.681 27.2857H55.2524V29.8571H52.681V27.2857ZM55.2524 27.2857H57.8238V29.8571H55.2524V27.2857ZM57.8238 27.2857H60.3953V29.8571H57.8238V27.2857ZM60.3953 27.2857H62.9667V29.8571H60.3953V27.2857ZM57.8238 29.8571H60.3953V32.4286H57.8238V29.8571ZM55.2524 29.8571H57.8238V32.4286H55.2524V29.8571ZM52.681 29.8571H55.2524V32.4286H52.681V29.8571ZM52.681 40.1429H55.2524V42.7143H52.681V40.1429ZM55.2524 37.5714H57.8238V40.1429H55.2524V37.5714ZM52.681 37.5714H55.2524V40.1429H52.681V37.5714ZM55.2524 40.1429H57.8238V42.7143H55.2524V40.1429ZM60.3953 29.8571H62.9667V32.4286H60.3953V29.8571ZM60.3953 47.8571H62.9667V50.4286H60.3953V47.8571ZM60.3953 50.4286H62.9667V53H60.3953V50.4286ZM57.8238 37.5714H60.3953V40.1429H57.8238V37.5714ZM57.8238 40.1429H60.3953V42.7143H57.8238V40.1429ZM66.4981 27.2857H69.0696V29.8571H66.4981V27.2857ZM69.0696 27.2857H71.641V29.8571H69.0696V27.2857ZM69.0696 29.8571H71.641V32.4286H69.0696V29.8571ZM69.0696 32.4286H71.641V35H69.0696V32.4286ZM69.0696 35H71.641V37.5714H69.0696V35ZM66.4981 35H69.0696V37.5714H66.4981V35ZM66.4981 32.4286H69.0696V35H66.4981V32.4286ZM66.4981 29.8571H69.0696V32.4286H66.4981V29.8571ZM66.4981 37.5714H69.0696V40.1429H66.4981V37.5714ZM66.4981 40.1429H69.0696V42.7143H66.4981V40.1429ZM66.4981 42.7143H69.0696V45.2857H66.4981V42.7143ZM69.0696 40.1429H71.641V42.7143H69.0696V40.1429ZM69.0696 37.5714H71.641V40.1429H69.0696V37.5714ZM69.0696 42.7143H71.641V45.2857H69.0696V42.7143ZM69.0696 45.2857H71.641V47.8571H69.0696V45.2857ZM66.4981 47.8571H69.0696V50.4286H66.4981V47.8571ZM66.4981 45.2857H69.0696V47.8571H66.4981V45.2857ZM66.4981 50.4286H69.0696V53H66.4981V50.4286ZM69.0696 50.4286H71.641V53H69.0696V50.4286ZM69.0696 47.8571H71.641V50.4286H69.0696V47.8571ZM71.641 50.4286H74.2124V53H71.641V50.4286ZM74.2124 50.4286H76.7838V53H74.2124V50.4286ZM76.7838 50.4286H79.3553V53H76.7838V50.4286ZM76.7838 47.8571H79.3553V50.4286H76.7838V47.8571ZM74.2124 47.8571H76.7838V50.4286H74.2124V47.8571ZM71.641 47.8571H74.2124V50.4286H71.641V47.8571ZM88.0229 27.2857H90.5943V29.8571H88.0229V27.2857ZM85.4514 27.2857H88.0229V29.8571H85.4514V27.2857ZM85.4514 29.8571H88.0229V32.4286H85.4514V29.8571ZM88.0229 29.8571H90.5943V32.4286H88.0229V29.8571ZM90.5943 29.8571H93.1657V32.4286H90.5943V29.8571ZM90.5943 27.2857H93.1657V29.8571H90.5943V27.2857ZM93.1657 27.2857H95.7371V29.8571H93.1657V27.2857ZM95.7371 27.2857H98.3086V29.8571H95.7371V27.2857ZM95.7371 29.8571H98.3086V32.4286H95.7371V29.8571ZM93.1657 29.8571H95.7371V32.4286H93.1657V29.8571ZM93.1657 32.4286H95.7371V35H93.1657V32.4286ZM95.7371 32.4286H98.3086V35H95.7371V32.4286ZM98.3086 29.8571H100.88V32.4286H98.3086V29.8571ZM98.3086 32.4286H100.88V35H98.3086V32.4286ZM98.3086 35H100.88V37.5714H98.3086V35ZM98.3086 37.5714H100.88V40.1429H98.3086V37.5714ZM98.3086 40.1429H100.88V42.7143H98.3086V40.1429ZM98.3086 42.7143H100.88V45.2857H98.3086V42.7143ZM98.3086 45.2857H100.88V47.8571H98.3086V45.2857ZM98.3086 47.8571H100.88V50.4286H98.3086V47.8571ZM95.7371 47.8571H98.3086V50.4286H95.7371V47.8571ZM95.7371 45.2857H98.3086V47.8571H95.7371V45.2857ZM95.7371 42.7143H98.3086V45.2857H95.7371V42.7143ZM95.7371 40.1429H98.3086V42.7143H95.7371V40.1429ZM95.7371 37.5714H98.3086V40.1429H95.7371V37.5714ZM95.7371 35H98.3086V37.5714H95.7371V35ZM93.1657 45.2857H95.7371V47.8571H93.1657V45.2857ZM93.1657 47.8571H95.7371V50.4286H93.1657V47.8571ZM95.7371 50.4286H98.3086V53H95.7371V50.4286ZM93.1657 50.4286H95.7371V53H93.1657V50.4286ZM90.5943 50.4286H93.1657V53H90.5943V50.4286ZM90.5943 47.8571H93.1657V50.4286H90.5943V47.8571ZM88.0229 50.4286H90.5943V53H88.0229V50.4286ZM85.4514 50.4286H88.0229V53H85.4514V50.4286ZM85.4514 47.8571H88.0229V50.4286H85.4514V47.8571ZM88.0229 47.8571H90.5943V50.4286H88.0229V47.8571ZM88.0229 45.2857H90.5943V47.8571H88.0229V45.2857ZM85.4514 45.2857H88.0229V47.8571H85.4514V45.2857ZM82.88 47.8571H85.4514V50.4286H82.88V47.8571ZM82.88 45.2857H85.4514V47.8571H82.88V45.2857ZM82.88 42.7143H85.4514V45.2857H82.88V42.7143ZM82.88 40.1429H85.4514V42.7143H82.88V40.1429ZM82.88 37.5714H85.4514V40.1429H82.88V37.5714ZM82.88 35H85.4514V37.5714H82.88V35ZM82.88 32.4286H85.4514V35H82.88V32.4286ZM85.4514 32.4286H88.0229V35H85.4514V32.4286ZM82.88 29.8571H85.4514V32.4286H82.88V29.8571ZM88.0229 32.4286H90.5943V35H88.0229V32.4286ZM85.4514 35H88.0229V37.5714H85.4514V35ZM85.4514 37.5714H88.0229V40.1429H85.4514V37.5714ZM85.4514 40.1429H88.0229V42.7143H85.4514V40.1429ZM85.4514 42.7143H88.0229V45.2857H85.4514V42.7143ZM109.561 29.8571H112.132V32.4286H109.561V29.8571ZM112.132 29.8571H114.704V32.4286H112.132V29.8571ZM112.132 27.2857H114.704V29.8571H112.132V27.2857ZM114.704 29.8571H117.275V32.4286H114.704V29.8571ZM114.704 32.4286H117.275V35H114.704V32.4286ZM117.275 32.4286H119.847V35H117.275V32.4286ZM112.132 32.4286H114.704V35H112.132V32.4286ZM109.561 32.4286H112.132V35H109.561V32.4286ZM106.99 32.4286H109.561V35H106.99V32.4286ZM106.99 35H109.561V37.5714H106.99V35ZM104.418 35H106.99V37.5714H104.418V35ZM109.561 35H112.132V37.5714H109.561V35ZM106.99 37.5714H109.561V40.1429H106.99V37.5714ZM106.99 40.1429H109.561V42.7143H106.99V40.1429ZM106.99 42.7143H109.561V45.2857H106.99V42.7143ZM109.561 42.7143H112.132V45.2857H109.561V42.7143ZM112.132 42.7143H114.704V45.2857H112.132V42.7143ZM114.704 42.7143H117.275V45.2857H114.704V42.7143ZM117.275 42.7143H119.847V45.2857H117.275V42.7143ZM119.847 42.7143H122.418V45.2857H119.847V42.7143ZM119.847 40.1429H122.418V42.7143H119.847V40.1429ZM119.847 37.5714H122.418V40.1429H119.847V37.5714ZM119.847 35H122.418V37.5714H119.847V35ZM117.275 35H119.847V37.5714H117.275V35ZM114.704 35H117.275V37.5714H114.704V35ZM117.275 37.5714H119.847V40.1429H117.275V37.5714ZM117.275 40.1429H119.847V42.7143H117.275V40.1429ZM117.275 45.2857H119.847V47.8571H117.275V45.2857ZM119.847 45.2857H122.418V47.8571H119.847V45.2857ZM119.847 47.8571H122.418V50.4286H119.847V47.8571ZM119.847 50.4286H122.418V53H119.847V50.4286ZM117.275 50.4286H119.847V53H117.275V50.4286ZM117.275 47.8571H119.847V50.4286H117.275V47.8571ZM114.704 45.2857H117.275V47.8571H114.704V45.2857ZM112.132 45.2857H114.704V47.8571H112.132V45.2857ZM109.561 45.2857H112.132V47.8571H109.561V45.2857ZM106.99 45.2857H109.561V47.8571H106.99V45.2857ZM106.99 47.8571H109.561V50.4286H106.99V47.8571ZM106.99 50.4286H109.561V53H106.99V50.4286ZM104.418 50.4286H106.99V53H104.418V50.4286ZM104.418 47.8571H106.99V50.4286H104.418V47.8571ZM104.418 45.2857H106.99V47.8571H104.418V45.2857ZM104.418 42.7143H106.99V45.2857H104.418V42.7143ZM104.418 40.1429H106.99V42.7143H104.418V40.1429ZM104.418 37.5714H106.99V40.1429H104.418V37.5714ZM131.099 27.2857H133.671V29.8571H131.099V27.2857ZM128.528 27.2857H131.099V29.8571H128.528V27.2857ZM128.528 29.8571H131.099V32.4286H128.528V29.8571ZM131.099 29.8571H133.671V32.4286H131.099V29.8571ZM133.671 29.8571H136.242V32.4286H133.671V29.8571ZM133.671 27.2857H136.242V29.8571H133.671V27.2857ZM136.242 27.2857H138.813V29.8571H136.242V27.2857ZM138.813 27.2857H141.385V29.8571H138.813V27.2857ZM138.813 29.8571H141.385V32.4286H138.813V29.8571ZM136.242 29.8571H138.813V32.4286H136.242V29.8571ZM136.242 32.4286H138.813V35H136.242V32.4286ZM138.813 32.4286H141.385V35H138.813V32.4286ZM141.385 29.8571H143.956V32.4286H141.385V29.8571ZM141.385 32.4286H143.956V35H141.385V32.4286ZM141.385 35H143.956V37.5714H141.385V35ZM141.385 37.5714H143.956V40.1429H141.385V37.5714ZM141.385 40.1429H143.956V42.7143H141.385V40.1429ZM141.385 42.7143H143.956V45.2857H141.385V42.7143ZM141.385 45.2857H143.956V47.8571H141.385V45.2857ZM141.385 47.8571H143.956V50.4286H141.385V47.8571ZM138.813 47.8571H141.385V50.4286H138.813V47.8571ZM138.813 45.2857H141.385V47.8571H138.813V45.2857ZM138.813 42.7143H141.385V45.2857H138.813V42.7143ZM138.813 40.1429H141.385V42.7143H138.813V40.1429ZM138.813 37.5714H141.385V40.1429H138.813V37.5714ZM138.813 35H141.385V37.5714H138.813V35ZM136.242 45.2857H138.813V47.8571H136.242V45.2857ZM136.242 47.8571H138.813V50.4286H136.242V47.8571ZM138.813 50.4286H141.385V53H138.813V50.4286ZM136.242 50.4286H138.813V53H136.242V50.4286ZM133.671 50.4286H136.242V53H133.671V50.4286ZM133.671 47.8571H136.242V50.4286H133.671V47.8571ZM131.099 50.4286H133.671V53H131.099V50.4286ZM128.528 50.4286H131.099V53H128.528V50.4286ZM128.528 47.8571H131.099V50.4286H128.528V47.8571ZM131.099 47.8571H133.671V50.4286H131.099V47.8571ZM128.528 45.2857H131.099V47.8571H128.528V45.2857ZM125.956 47.8571H128.528V50.4286H125.956V47.8571ZM125.956 45.2857H128.528V47.8571H125.956V45.2857ZM125.956 42.7143H128.528V45.2857H125.956V42.7143ZM125.956 40.1429H128.528V42.7143H125.956V40.1429ZM125.956 37.5714H128.528V40.1429H125.956V37.5714ZM125.956 35H128.528V37.5714H125.956V35ZM125.956 32.4286H128.528V35H125.956V32.4286ZM128.528 32.4286H131.099V35H128.528V32.4286ZM125.956 29.8571H128.528V32.4286H125.956V29.8571ZM128.528 35H131.099V37.5714H128.528V35ZM128.528 37.5714H131.099V40.1429H128.528V37.5714ZM128.528 40.1429H131.099V42.7143H128.528V40.1429ZM128.528 42.7143H131.099V45.2857H128.528V42.7143ZM125.956 50.4286H128.528V53H125.956V50.4286ZM125.956 27.2857H128.528V29.8571H125.956V27.2857Z" fill="#7F1E65"/>
<path d="M182.8 61H178.599V56.7998H182.8V61ZM178.599 48.4004H203.8V52.5996H178.599V56.7998H174.4V52.5996H170.2V48.4004H174.4V44.2002H178.599V48.4004ZM208 48.4004H203.8V37.8994H208V48.4004ZM182.8 44.2002H178.599V40H182.8V44.2002ZM170.2 42.1006H166V31.5996H170.2V42.1006ZM195.4 40H191.2V35.7998H195.4V40ZM199.6 27.4004H203.8V31.5996H199.6V35.7998H195.4V31.5996H170.2V27.4004H195.4V23.2002H199.6V27.4004ZM195.4 23.2002H191.2V19H195.4V23.2002Z" fill="#7F1E65"/>
</svg>
